<mxfile host="Electron" modified="2024-05-11T06:40:33.734Z" agent="Mozilla/5.0 (Macintosh; Intel Mac OS X 10_15_7) AppleWebKit/537.36 (KHTML, like Gecko) draw.io/24.0.4 Chrome/120.0.6099.109 Electron/28.1.0 Safari/537.36" etag="rQ38fw89TCJawnptnTWh" version="24.0.4" type="device">
  <diagram name="Page-1" id="_nR7e4XgD6fj8UJKNjDj">
    <mxGraphModel dx="3711" dy="-12490" grid="1" gridSize="10" guides="1" tooltips="1" connect="1" arrows="1" fold="1" page="1" pageScale="1" pageWidth="850" pageHeight="1100" math="0" shadow="0">
      <root>
        <mxCell id="0" />
        <mxCell id="1" parent="0" />
        <mxCell id="ec-a_IO9oX3N2aJ7Yq7e-177" style="edgeStyle=orthogonalEdgeStyle;rounded=0;orthogonalLoop=1;jettySize=auto;html=1;" edge="1" parent="1" source="ec-a_IO9oX3N2aJ7Yq7e-175" target="ec-a_IO9oX3N2aJ7Yq7e-176">
          <mxGeometry relative="1" as="geometry" />
        </mxCell>
        <mxCell id="ec-a_IO9oX3N2aJ7Yq7e-175" value="" style="rounded=1;whiteSpace=wrap;html=1;fillColor=#bac8d3;strokeColor=#23445d;" vertex="1" parent="1">
          <mxGeometry x="-1640.62" y="16080" width="1943.62" height="540" as="geometry" />
        </mxCell>
        <mxCell id="BASvvJVavqTpIo9RgMH1-2063" value="" style="rounded=1;whiteSpace=wrap;html=1;fillColor=#fad7ac;strokeColor=#b46504;" parent="1" vertex="1">
          <mxGeometry x="-1335.67" y="14871.44" width="1145" height="518.56" as="geometry" />
        </mxCell>
        <mxCell id="BASvvJVavqTpIo9RgMH1-2062" value="" style="rounded=1;whiteSpace=wrap;html=1;fillColor=#bac8d3;strokeColor=#23445d;" parent="1" vertex="1">
          <mxGeometry x="-1316.6200000000001" y="15440" width="1145" height="540" as="geometry" />
        </mxCell>
        <mxCell id="BASvvJVavqTpIo9RgMH1-1960" value="&lt;span class=&quot;md-plain md-expand&quot; style=&quot;box-sizing: border-box; caret-color: rgb(51, 51, 51); font-family: &amp;quot;Open Sans&amp;quot;, &amp;quot;Clear Sans&amp;quot;, &amp;quot;Helvetica Neue&amp;quot;, Helvetica, Arial, &amp;quot;Segoe UI Emoji&amp;quot;, sans-serif; font-size: 16px; orphans: 4; white-space-collapse: preserve; text-size-adjust: auto;&quot;&gt;&lt;font color=&quot;#333333&quot;&gt;const&lt;/font&gt;&lt;b style=&quot;&quot;&gt;&lt;font color=&quot;#ff3333&quot;&gt; half *&lt;/font&gt;&lt;/b&gt;&lt;font color=&quot;#333333&quot;&gt;smem_warp_stream_ptr = &amp;amp;smem[0][0] &lt;/font&gt;&lt;/span&gt;&lt;span class=&quot;md-plain&quot; style=&quot;box-sizing: border-box; caret-color: rgb(51, 51, 51); color: rgb(51, 51, 51); font-family: &amp;quot;Open Sans&amp;quot;, &amp;quot;Clear Sans&amp;quot;, &amp;quot;Helvetica Neue&amp;quot;, Helvetica, Arial, &amp;quot;Segoe UI Emoji&amp;quot;, sans-serif; font-size: 16px; orphans: 4; white-space-collapse: preserve; text-size-adjust: auto;&quot;&gt;+ &lt;/span&gt;&lt;div&gt;&lt;span class=&quot;md-plain&quot; style=&quot;box-sizing: border-box; caret-color: rgb(51, 51, 51); color: rgb(51, 51, 51); font-family: &amp;quot;Open Sans&amp;quot;, &amp;quot;Clear Sans&amp;quot;, &amp;quot;Helvetica Neue&amp;quot;, Helvetica, Arial, &amp;quot;Segoe UI Emoji&amp;quot;, sans-serif; font-size: 16px; orphans: 4; white-space-collapse: preserve; text-size-adjust: auto;&quot;&gt;&lt;span style=&quot;white-space: pre;&quot;&gt;&#x9;&lt;/span&gt;&lt;span style=&quot;white-space: pre;&quot;&gt;&#x9;&lt;/span&gt;&lt;span style=&quot;white-space: pre;&quot;&gt;&#x9;&lt;/span&gt;&lt;span style=&quot;white-space: pre;&quot;&gt;&#x9;&lt;/span&gt;&lt;span style=&quot;white-space: pre;&quot;&gt;&#x9;&lt;/span&gt;warp_id * MMA_M * 2 * C_SMEM_STRIDE;&lt;/span&gt;&lt;/div&gt;&lt;div&gt;&lt;span class=&quot;md-plain&quot; style=&quot;box-sizing: border-box; caret-color: rgb(51, 51, 51); color: rgb(51, 51, 51); font-family: &amp;quot;Open Sans&amp;quot;, &amp;quot;Clear Sans&amp;quot;, &amp;quot;Helvetica Neue&amp;quot;, Helvetica, Arial, &amp;quot;Segoe UI Emoji&amp;quot;, sans-serif; font-size: 16px; orphans: 4; white-space-collapse: preserve; text-size-adjust: auto;&quot;&gt;(warp_id=1)&lt;/span&gt;&lt;/div&gt;" style="rounded=1;whiteSpace=wrap;html=1;align=left;" parent="1" vertex="1">
          <mxGeometry x="-1220.46" y="15460" width="494.3" height="60" as="geometry" />
        </mxCell>
        <mxCell id="BASvvJVavqTpIo9RgMH1-1961" value="&lt;font style=&quot;font-size: 17px;&quot;&gt;warp_id=0&lt;/font&gt;" style="rounded=0;whiteSpace=wrap;html=1;" parent="1" vertex="1">
          <mxGeometry x="-1099.1600000000003" y="15624" width="313" height="80" as="geometry" />
        </mxCell>
        <mxCell id="BASvvJVavqTpIo9RgMH1-1968" value="&lt;font style=&quot;font-size: 17px;&quot;&gt;warp_id=1&lt;/font&gt;" style="rounded=0;whiteSpace=wrap;html=1;fillColor=#f8cecc;strokeColor=#b85450;" parent="1" vertex="1">
          <mxGeometry x="-1098.8200000000002" y="15704" width="313" height="80" as="geometry" />
        </mxCell>
        <mxCell id="BASvvJVavqTpIo9RgMH1-1969" value="" style="shape=curlyBracket;whiteSpace=wrap;html=1;rounded=1;flipH=1;labelPosition=right;verticalLabelPosition=middle;align=left;verticalAlign=middle;" parent="1" vertex="1">
          <mxGeometry x="-785.8200000000002" y="15704" width="20" height="80" as="geometry" />
        </mxCell>
        <mxCell id="BASvvJVavqTpIo9RgMH1-1970" value="&lt;span style=&quot;color: rgb(51, 51, 51); font-family: &amp;quot;Open Sans&amp;quot;, &amp;quot;Clear Sans&amp;quot;, &amp;quot;Helvetica Neue&amp;quot;, Helvetica, Arial, &amp;quot;Segoe UI Emoji&amp;quot;, sans-serif; font-size: 16px; orphans: 4; text-align: left; caret-color: rgb(51, 51, 51); white-space: pre-wrap;&quot;&gt;2*MMA_M=32&lt;/span&gt;" style="text;html=1;align=center;verticalAlign=middle;resizable=0;points=[];autosize=1;strokeColor=none;fillColor=none;" parent="1" vertex="1">
          <mxGeometry x="-774.3" y="15729" width="130" height="30" as="geometry" />
        </mxCell>
        <mxCell id="BASvvJVavqTpIo9RgMH1-1971" value="" style="shape=curlyBracket;whiteSpace=wrap;html=1;rounded=1;flipH=1;labelPosition=right;verticalLabelPosition=middle;align=left;verticalAlign=middle;rotation=-90;" parent="1" vertex="1">
          <mxGeometry x="-952.3200000000002" y="15460" width="20" height="310" as="geometry" />
        </mxCell>
        <mxCell id="BASvvJVavqTpIo9RgMH1-1972" value="&lt;span style=&quot;color: rgb(51, 51, 51); font-family: &amp;quot;Open Sans&amp;quot;, &amp;quot;Clear Sans&amp;quot;, &amp;quot;Helvetica Neue&amp;quot;, Helvetica, Arial, &amp;quot;Segoe UI Emoji&amp;quot;, sans-serif; font-size: 16px; orphans: 4; text-align: left; caret-color: rgb(51, 51, 51); white-space: pre-wrap;&quot;&gt;128&lt;/span&gt;" style="text;html=1;align=center;verticalAlign=middle;resizable=0;points=[];autosize=1;strokeColor=none;fillColor=none;" parent="1" vertex="1">
          <mxGeometry x="-967.6800000000001" y="15584" width="50" height="30" as="geometry" />
        </mxCell>
        <mxCell id="BASvvJVavqTpIo9RgMH1-1973" value="&lt;font style=&quot;font-size: 17px;&quot;&gt;...&lt;/font&gt;" style="rounded=0;whiteSpace=wrap;html=1;" parent="1" vertex="1">
          <mxGeometry x="-1099.1800000000003" y="15784" width="313" height="80" as="geometry" />
        </mxCell>
        <mxCell id="BASvvJVavqTpIo9RgMH1-1974" value="&lt;font style=&quot;font-size: 17px;&quot;&gt;warp_id=7&lt;/font&gt;" style="rounded=0;whiteSpace=wrap;html=1;" parent="1" vertex="1">
          <mxGeometry x="-1098.8200000000002" y="15864" width="313" height="80" as="geometry" />
        </mxCell>
        <mxCell id="BASvvJVavqTpIo9RgMH1-1975" value="" style="shape=curlyBracket;whiteSpace=wrap;html=1;rounded=1;labelPosition=left;verticalLabelPosition=middle;align=right;verticalAlign=middle;" parent="1" vertex="1">
          <mxGeometry x="-1119.1600000000003" y="15624" width="20" height="320" as="geometry" />
        </mxCell>
        <mxCell id="BASvvJVavqTpIo9RgMH1-1976" value="&lt;span style=&quot;color: rgb(51, 51, 51); font-family: &amp;quot;Open Sans&amp;quot;, &amp;quot;Clear Sans&amp;quot;, &amp;quot;Helvetica Neue&amp;quot;, Helvetica, Arial, &amp;quot;Segoe UI Emoji&amp;quot;, sans-serif; font-size: 16px; orphans: 4; text-align: left; caret-color: rgb(51, 51, 51); white-space: pre-wrap;&quot;&gt;16*MMA_M=256&lt;/span&gt;" style="text;html=1;align=center;verticalAlign=middle;resizable=0;points=[];autosize=1;strokeColor=none;fillColor=none;" parent="1" vertex="1">
          <mxGeometry x="-1254.1599999999999" y="15769" width="140" height="30" as="geometry" />
        </mxCell>
        <mxCell id="BASvvJVavqTpIo9RgMH1-1977" value="" style="whiteSpace=wrap;html=1;aspect=fixed;fillColor=#d5e8d4;strokeColor=#82b366;" parent="1" vertex="1">
          <mxGeometry x="-1098.8200000000002" y="15704" width="20" height="20" as="geometry" />
        </mxCell>
        <mxCell id="BASvvJVavqTpIo9RgMH1-1978" value="" style="endArrow=classic;html=1;rounded=0;entryX=0.5;entryY=1;entryDx=0;entryDy=0;exitX=0;exitY=1;exitDx=0;exitDy=0;" parent="1" source="BASvvJVavqTpIo9RgMH1-1961" target="BASvvJVavqTpIo9RgMH1-1960" edge="1">
          <mxGeometry width="50" height="50" relative="1" as="geometry">
            <mxPoint x="-1186.1600000000003" y="15624" as="sourcePoint" />
            <mxPoint x="-1136.1600000000003" y="15574" as="targetPoint" />
          </mxGeometry>
        </mxCell>
        <mxCell id="BASvvJVavqTpIo9RgMH1-1979" value="lane_id=0" style="rounded=0;whiteSpace=wrap;html=1;" parent="1" vertex="1">
          <mxGeometry x="-598.79" y="15760" width="70.19" height="20" as="geometry" />
        </mxCell>
        <mxCell id="BASvvJVavqTpIo9RgMH1-1983" value="..." style="rounded=0;whiteSpace=wrap;html=1;" parent="1" vertex="1">
          <mxGeometry x="-598.03" y="15720" width="280" height="40" as="geometry" />
        </mxCell>
        <mxCell id="BASvvJVavqTpIo9RgMH1-1984" value="i=0" style="rounded=0;whiteSpace=wrap;html=1;" parent="1" vertex="1">
          <mxGeometry x="-597.79" y="15680" width="280" height="40" as="geometry" />
        </mxCell>
        <mxCell id="BASvvJVavqTpIo9RgMH1-1985" value="" style="shape=curlyBracket;whiteSpace=wrap;html=1;rounded=1;flipH=1;labelPosition=right;verticalLabelPosition=middle;align=left;verticalAlign=middle;rotation=-90;" parent="1" vertex="1">
          <mxGeometry x="-467.5399999999999" y="15528.75" width="20" height="282.5" as="geometry" />
        </mxCell>
        <mxCell id="BASvvJVavqTpIo9RgMH1-1986" value="&lt;span style=&quot;color: rgb(51, 51, 51); font-family: &amp;quot;Open Sans&amp;quot;, &amp;quot;Clear Sans&amp;quot;, &amp;quot;Helvetica Neue&amp;quot;, Helvetica, Arial, &amp;quot;Segoe UI Emoji&amp;quot;, sans-serif; font-size: 16px; orphans: 4; text-align: left; caret-color: rgb(51, 51, 51); white-space: pre-wrap;&quot;&gt;128=16*int4&lt;/span&gt;" style="text;html=1;align=center;verticalAlign=middle;resizable=0;points=[];autosize=1;strokeColor=none;fillColor=none;" parent="1" vertex="1">
          <mxGeometry x="-507.77000000000004" y="15630" width="110" height="30" as="geometry" />
        </mxCell>
        <mxCell id="BASvvJVavqTpIo9RgMH1-1987" value="lane_id=16" style="rounded=0;whiteSpace=wrap;html=1;" parent="1" vertex="1">
          <mxGeometry x="-598.79" y="15780" width="70.19" height="20" as="geometry" />
        </mxCell>
        <mxCell id="BASvvJVavqTpIo9RgMH1-1988" value="lane_id=1" style="rounded=0;whiteSpace=wrap;html=1;" parent="1" vertex="1">
          <mxGeometry x="-528.5999999999999" y="15760" width="70.19" height="20" as="geometry" />
        </mxCell>
        <mxCell id="BASvvJVavqTpIo9RgMH1-1989" value="..." style="rounded=0;whiteSpace=wrap;html=1;" parent="1" vertex="1">
          <mxGeometry x="-458.4099999999998" y="15760" width="70.19" height="20" as="geometry" />
        </mxCell>
        <mxCell id="BASvvJVavqTpIo9RgMH1-1990" value="lane_id=15" style="rounded=0;whiteSpace=wrap;html=1;" parent="1" vertex="1">
          <mxGeometry x="-388.21999999999974" y="15760" width="70.19" height="20" as="geometry" />
        </mxCell>
        <mxCell id="BASvvJVavqTpIo9RgMH1-1991" value="lane_id=17" style="rounded=0;whiteSpace=wrap;html=1;" parent="1" vertex="1">
          <mxGeometry x="-528.5999999999999" y="15780" width="70.19" height="20" as="geometry" />
        </mxCell>
        <mxCell id="BASvvJVavqTpIo9RgMH1-1992" value="..." style="rounded=0;whiteSpace=wrap;html=1;" parent="1" vertex="1">
          <mxGeometry x="-458.4099999999998" y="15780" width="70.19" height="20" as="geometry" />
        </mxCell>
        <mxCell id="BASvvJVavqTpIo9RgMH1-1993" value="lane_id=31" style="rounded=0;whiteSpace=wrap;html=1;" parent="1" vertex="1">
          <mxGeometry x="-388.21999999999974" y="15780" width="70.19" height="20" as="geometry" />
        </mxCell>
        <mxCell id="BASvvJVavqTpIo9RgMH1-1994" value="" style="shape=curlyBracket;whiteSpace=wrap;html=1;rounded=1;labelPosition=left;verticalLabelPosition=middle;align=right;verticalAlign=middle;rotation=90;" parent="1" vertex="1">
          <mxGeometry x="-574.1499999999999" y="15716.82" width="20" height="66.88" as="geometry" />
        </mxCell>
        <mxCell id="BASvvJVavqTpIo9RgMH1-1996" value="" style="shape=curlyBracket;whiteSpace=wrap;html=1;rounded=1;labelPosition=left;verticalLabelPosition=middle;align=right;verticalAlign=middle;rotation=90;" parent="1" vertex="1">
          <mxGeometry x="-503.5099999999998" y="15716.82" width="20" height="66.88" as="geometry" />
        </mxCell>
        <mxCell id="BASvvJVavqTpIo9RgMH1-1997" value="" style="shape=curlyBracket;whiteSpace=wrap;html=1;rounded=1;labelPosition=left;verticalLabelPosition=middle;align=right;verticalAlign=middle;rotation=90;" parent="1" vertex="1">
          <mxGeometry x="-363.1299999999996" y="15716.82" width="20" height="66.88" as="geometry" />
        </mxCell>
        <mxCell id="BASvvJVavqTpIo9RgMH1-1999" value="&lt;span style=&quot;color: rgb(51, 51, 51); font-family: &amp;quot;Open Sans&amp;quot;, &amp;quot;Clear Sans&amp;quot;, &amp;quot;Helvetica Neue&amp;quot;, Helvetica, Arial, &amp;quot;Segoe UI Emoji&amp;quot;, sans-serif; font-size: 16px; font-style: normal; font-variant-ligatures: normal; font-variant-caps: normal; font-weight: 400; letter-spacing: normal; orphans: 4; text-align: left; text-indent: 0px; text-transform: none; widows: 2; word-spacing: 0px; -webkit-text-stroke-width: 0px; caret-color: rgb(51, 51, 51); white-space: pre-wrap; background-color: rgb(251, 251, 251); text-decoration-thickness: initial; text-decoration-style: initial; text-decoration-color: initial; display: inline !important; float: none;&quot;&gt;int4&lt;/span&gt;" style="text;whiteSpace=wrap;html=1;" parent="1" vertex="1">
          <mxGeometry x="-579.1499999999999" y="15716.82" width="30" height="30" as="geometry" />
        </mxCell>
        <mxCell id="BASvvJVavqTpIo9RgMH1-2000" value="&lt;span style=&quot;color: rgb(51, 51, 51); font-family: &amp;quot;Open Sans&amp;quot;, &amp;quot;Clear Sans&amp;quot;, &amp;quot;Helvetica Neue&amp;quot;, Helvetica, Arial, &amp;quot;Segoe UI Emoji&amp;quot;, sans-serif; font-size: 16px; font-style: normal; font-variant-ligatures: normal; font-variant-caps: normal; font-weight: 400; letter-spacing: normal; orphans: 4; text-align: left; text-indent: 0px; text-transform: none; widows: 2; word-spacing: 0px; -webkit-text-stroke-width: 0px; caret-color: rgb(51, 51, 51); white-space: pre-wrap; background-color: rgb(251, 251, 251); text-decoration-thickness: initial; text-decoration-style: initial; text-decoration-color: initial; display: inline !important; float: none;&quot;&gt;int4&lt;/span&gt;" style="text;whiteSpace=wrap;html=1;" parent="1" vertex="1">
          <mxGeometry x="-508.79" y="15716.82" width="30" height="30" as="geometry" />
        </mxCell>
        <mxCell id="BASvvJVavqTpIo9RgMH1-2001" value="&lt;span style=&quot;color: rgb(51, 51, 51); font-family: &amp;quot;Open Sans&amp;quot;, &amp;quot;Clear Sans&amp;quot;, &amp;quot;Helvetica Neue&amp;quot;, Helvetica, Arial, &amp;quot;Segoe UI Emoji&amp;quot;, sans-serif; font-size: 16px; font-style: normal; font-variant-ligatures: normal; font-variant-caps: normal; font-weight: 400; letter-spacing: normal; orphans: 4; text-align: left; text-indent: 0px; text-transform: none; widows: 2; word-spacing: 0px; -webkit-text-stroke-width: 0px; caret-color: rgb(51, 51, 51); white-space: pre-wrap; background-color: rgb(251, 251, 251); text-decoration-thickness: initial; text-decoration-style: initial; text-decoration-color: initial; display: inline !important; float: none;&quot;&gt;int4&lt;/span&gt;" style="text;whiteSpace=wrap;html=1;" parent="1" vertex="1">
          <mxGeometry x="-363.1299999999998" y="15716.82" width="30" height="30" as="geometry" />
        </mxCell>
        <mxCell id="BASvvJVavqTpIo9RgMH1-2003" value="..." style="rounded=0;whiteSpace=wrap;html=1;" parent="1" vertex="1">
          <mxGeometry x="-598.29" y="15800" width="280" height="40" as="geometry" />
        </mxCell>
        <mxCell id="BASvvJVavqTpIo9RgMH1-2004" value="i=15" style="rounded=0;whiteSpace=wrap;html=1;" parent="1" vertex="1">
          <mxGeometry x="-598.54" y="15840" width="280" height="40" as="geometry" />
        </mxCell>
        <mxCell id="BASvvJVavqTpIo9RgMH1-2005" value="" style="shape=curlyBracket;whiteSpace=wrap;html=1;rounded=1;flipH=1;labelPosition=right;verticalLabelPosition=middle;align=left;verticalAlign=middle;rotation=-180;" parent="1" vertex="1">
          <mxGeometry x="-618.79" y="15761.25" width="20" height="38.75" as="geometry" />
        </mxCell>
        <mxCell id="BASvvJVavqTpIo9RgMH1-2009" value="i=3" style="text;html=1;align=center;verticalAlign=middle;resizable=0;points=[];autosize=1;strokeColor=none;fillColor=none;" parent="1" vertex="1">
          <mxGeometry x="-647.3" y="15764.63" width="40" height="30" as="geometry" />
        </mxCell>
        <mxCell id="BASvvJVavqTpIo9RgMH1-2010" value="" style="rounded=0;whiteSpace=wrap;html=1;" parent="1" vertex="1">
          <mxGeometry x="-1635.92" y="15025.72" width="195" height="210" as="geometry" />
        </mxCell>
        <mxCell id="BASvvJVavqTpIo9RgMH1-2011" value="block" style="rounded=0;whiteSpace=wrap;html=1;fillColor=#d80073;fontColor=#ffffff;strokeColor=#A50040;" parent="1" vertex="1">
          <mxGeometry x="-1531.0800000000002" y="15100.72" width="40" height="65" as="geometry" />
        </mxCell>
        <mxCell id="BASvvJVavqTpIo9RgMH1-2014" value="&lt;font style=&quot;font-size: 17px;&quot;&gt;warp_id=0&lt;/font&gt;" style="rounded=0;whiteSpace=wrap;html=1;" parent="1" vertex="1">
          <mxGeometry x="-1113.2900000000002" y="15024" width="313" height="80" as="geometry" />
        </mxCell>
        <mxCell id="BASvvJVavqTpIo9RgMH1-2015" value="&lt;font style=&quot;font-size: 17px;&quot;&gt;warp_id=1&lt;/font&gt;" style="rounded=0;whiteSpace=wrap;html=1;fillColor=#f8cecc;strokeColor=#b85450;" parent="1" vertex="1">
          <mxGeometry x="-1112.95" y="15104" width="313" height="80" as="geometry" />
        </mxCell>
        <mxCell id="BASvvJVavqTpIo9RgMH1-2016" value="" style="shape=curlyBracket;whiteSpace=wrap;html=1;rounded=1;flipH=1;labelPosition=right;verticalLabelPosition=middle;align=left;verticalAlign=middle;" parent="1" vertex="1">
          <mxGeometry x="-799.9500000000002" y="15104" width="20" height="80" as="geometry" />
        </mxCell>
        <mxCell id="BASvvJVavqTpIo9RgMH1-2017" value="&lt;span style=&quot;color: rgb(51, 51, 51); font-family: &amp;quot;Open Sans&amp;quot;, &amp;quot;Clear Sans&amp;quot;, &amp;quot;Helvetica Neue&amp;quot;, Helvetica, Arial, &amp;quot;Segoe UI Emoji&amp;quot;, sans-serif; font-size: 16px; orphans: 4; text-align: left; caret-color: rgb(51, 51, 51); white-space: pre-wrap;&quot;&gt;2*MMA_M=32&lt;/span&gt;" style="text;html=1;align=center;verticalAlign=middle;resizable=0;points=[];autosize=1;strokeColor=none;fillColor=none;" parent="1" vertex="1">
          <mxGeometry x="-788.4300000000001" y="15129" width="130" height="30" as="geometry" />
        </mxCell>
        <mxCell id="BASvvJVavqTpIo9RgMH1-2018" value="" style="shape=curlyBracket;whiteSpace=wrap;html=1;rounded=1;flipH=1;labelPosition=right;verticalLabelPosition=middle;align=left;verticalAlign=middle;rotation=-90;" parent="1" vertex="1">
          <mxGeometry x="-966.45" y="14860" width="20" height="310" as="geometry" />
        </mxCell>
        <mxCell id="BASvvJVavqTpIo9RgMH1-2019" value="&lt;span style=&quot;color: rgb(51, 51, 51); font-family: &amp;quot;Open Sans&amp;quot;, &amp;quot;Clear Sans&amp;quot;, &amp;quot;Helvetica Neue&amp;quot;, Helvetica, Arial, &amp;quot;Segoe UI Emoji&amp;quot;, sans-serif; font-size: 16px; orphans: 4; text-align: left; caret-color: rgb(51, 51, 51); white-space: pre-wrap;&quot;&gt;128&lt;/span&gt;" style="text;html=1;align=center;verticalAlign=middle;resizable=0;points=[];autosize=1;strokeColor=none;fillColor=none;" parent="1" vertex="1">
          <mxGeometry x="-981.4500000000002" y="14985" width="50" height="30" as="geometry" />
        </mxCell>
        <mxCell id="BASvvJVavqTpIo9RgMH1-2020" value="&lt;font style=&quot;font-size: 17px;&quot;&gt;...&lt;/font&gt;" style="rounded=0;whiteSpace=wrap;html=1;" parent="1" vertex="1">
          <mxGeometry x="-1113.3100000000002" y="15184" width="313" height="80" as="geometry" />
        </mxCell>
        <mxCell id="BASvvJVavqTpIo9RgMH1-2021" value="&lt;font style=&quot;font-size: 17px;&quot;&gt;warp_id=7&lt;/font&gt;" style="rounded=0;whiteSpace=wrap;html=1;" parent="1" vertex="1">
          <mxGeometry x="-1112.95" y="15264" width="313" height="80" as="geometry" />
        </mxCell>
        <mxCell id="BASvvJVavqTpIo9RgMH1-2022" value="" style="shape=curlyBracket;whiteSpace=wrap;html=1;rounded=1;labelPosition=left;verticalLabelPosition=middle;align=right;verticalAlign=middle;" parent="1" vertex="1">
          <mxGeometry x="-1133.2900000000002" y="15024" width="20" height="320" as="geometry" />
        </mxCell>
        <mxCell id="BASvvJVavqTpIo9RgMH1-2023" value="&lt;span style=&quot;color: rgb(51, 51, 51); font-family: &amp;quot;Open Sans&amp;quot;, &amp;quot;Clear Sans&amp;quot;, &amp;quot;Helvetica Neue&amp;quot;, Helvetica, Arial, &amp;quot;Segoe UI Emoji&amp;quot;, sans-serif; font-size: 16px; orphans: 4; text-align: left; caret-color: rgb(51, 51, 51); white-space: pre-wrap;&quot;&gt;16*MMA_M=256&lt;/span&gt;" style="text;html=1;align=center;verticalAlign=middle;resizable=0;points=[];autosize=1;strokeColor=none;fillColor=none;" parent="1" vertex="1">
          <mxGeometry x="-1268.2899999999997" y="15169" width="140" height="30" as="geometry" />
        </mxCell>
        <mxCell id="BASvvJVavqTpIo9RgMH1-2024" value="" style="whiteSpace=wrap;html=1;aspect=fixed;fillColor=#d5e8d4;strokeColor=#82b366;" parent="1" vertex="1">
          <mxGeometry x="-1112.95" y="15104" width="20" height="20" as="geometry" />
        </mxCell>
        <mxCell id="BASvvJVavqTpIo9RgMH1-2025" value="" style="shape=curlyBracket;whiteSpace=wrap;html=1;rounded=1;flipH=1;labelPosition=right;verticalLabelPosition=middle;align=left;verticalAlign=middle;" parent="1" vertex="1">
          <mxGeometry x="-1490.92" y="15100.72" width="20" height="65" as="geometry" />
        </mxCell>
        <mxCell id="BASvvJVavqTpIo9RgMH1-2026" value="256" style="text;html=1;align=center;verticalAlign=middle;resizable=0;points=[];autosize=1;strokeColor=none;fillColor=none;" parent="1" vertex="1">
          <mxGeometry x="-1479.45" y="15118.22" width="40" height="30" as="geometry" />
        </mxCell>
        <mxCell id="BASvvJVavqTpIo9RgMH1-2027" value="" style="shape=curlyBracket;whiteSpace=wrap;html=1;rounded=1;labelPosition=left;verticalLabelPosition=middle;align=right;verticalAlign=middle;rotation=90;" parent="1" vertex="1">
          <mxGeometry x="-1520.91" y="15071.72" width="20" height="39" as="geometry" />
        </mxCell>
        <mxCell id="BASvvJVavqTpIo9RgMH1-2028" value="128" style="text;html=1;align=center;verticalAlign=middle;resizable=0;points=[];autosize=1;strokeColor=none;fillColor=none;" parent="1" vertex="1">
          <mxGeometry x="-1531.0800000000002" y="15059.72" width="40" height="30" as="geometry" />
        </mxCell>
        <mxCell id="BASvvJVavqTpIo9RgMH1-2029" value="&lt;div&gt;&lt;font color=&quot;#cc0000&quot; style=&quot;font-size: 21px;&quot;&gt;&lt;b&gt;shared memory&lt;/b&gt;&lt;/font&gt;&lt;/div&gt;" style="shape=hexagon;perimeter=hexagonPerimeter2;whiteSpace=wrap;html=1;fixedSize=1;" parent="1" vertex="1">
          <mxGeometry x="-1610.0000000000002" y="15717.82" width="189.45" height="80" as="geometry" />
        </mxCell>
        <mxCell id="BASvvJVavqTpIo9RgMH1-2030" value="" style="curved=1;endArrow=classic;html=1;rounded=0;exitX=1;exitY=0.5;exitDx=0;exitDy=0;entryX=0;entryY=1;entryDx=0;entryDy=0;" parent="1" source="BASvvJVavqTpIo9RgMH1-1968" target="BASvvJVavqTpIo9RgMH1-1984" edge="1">
          <mxGeometry width="50" height="50" relative="1" as="geometry">
            <mxPoint x="-619.79" y="15550" as="sourcePoint" />
            <mxPoint x="-569.79" y="15500" as="targetPoint" />
            <Array as="points">
              <mxPoint x="-775.79" y="15700" />
              <mxPoint x="-659.79" y="15650" />
            </Array>
          </mxGeometry>
        </mxCell>
        <mxCell id="BASvvJVavqTpIo9RgMH1-2031" value="&lt;span style=&quot;caret-color: rgb(51, 51, 51); color: rgb(51, 51, 51); font-family: &amp;quot;Open Sans&amp;quot;, &amp;quot;Clear Sans&amp;quot;, &amp;quot;Helvetica Neue&amp;quot;, Helvetica, Arial, &amp;quot;Segoe UI Emoji&amp;quot;, sans-serif; font-size: 16px; orphans: 4; white-space-collapse: preserve; text-size-adjust: auto; background-color: rgb(255, 255, 255);&quot;&gt;const size_t gmem_idx = (block_tile_i + warp_id * 2) * MMA_M * N + block_tile_j * MMA_N;&lt;/span&gt;&lt;div&gt;&lt;div style=&quot;orphans: 4;&quot;&gt;&lt;span style=&quot;caret-color: rgb(51, 51, 51); color: rgb(51, 51, 51); font-family: &amp;quot;Open Sans&amp;quot;, &amp;quot;Clear Sans&amp;quot;, &amp;quot;Helvetica Neue&amp;quot;, Helvetica, Arial, &amp;quot;Segoe UI Emoji&amp;quot;, sans-serif; font-size: 16px; white-space-collapse: preserve; text-size-adjust: auto; background-color: rgb(255, 255, 255);&quot;&gt;const half *src_gmem_warp_stream_ptr = &amp;amp;C[gmem_idx];&lt;/span&gt;&lt;font face=&quot;Open Sans, Clear Sans, Helvetica Neue, Helvetica, Arial, Segoe UI Emoji, sans-serif&quot; color=&quot;#333333&quot;&gt;&lt;span style=&quot;font-size: 16px; caret-color: rgb(51, 51, 51); white-space-collapse: preserve;&quot;&gt;&lt;br&gt;&lt;/span&gt;&lt;/font&gt;&lt;/div&gt;&lt;div&gt;&lt;span style=&quot;caret-color: rgb(51, 51, 51); color: rgb(51, 51, 51); font-family: &amp;quot;Open Sans&amp;quot;, &amp;quot;Clear Sans&amp;quot;, &amp;quot;Helvetica Neue&amp;quot;, Helvetica, Arial, &amp;quot;Segoe UI Emoji&amp;quot;, sans-serif; font-size: 16px; orphans: 4; white-space-collapse: preserve; text-size-adjust: auto; background-color: rgb(255, 255, 255);&quot;&gt;(warp_id=1)&lt;/span&gt;&lt;/div&gt;&lt;/div&gt;" style="rounded=1;whiteSpace=wrap;html=1;align=left;" parent="1" vertex="1">
          <mxGeometry x="-1306.24" y="14890" width="680.7" height="80" as="geometry" />
        </mxCell>
        <mxCell id="BASvvJVavqTpIo9RgMH1-2032" value="" style="endArrow=classic;html=1;rounded=0;entryX=0.5;entryY=1;entryDx=0;entryDy=0;exitX=0;exitY=1;exitDx=0;exitDy=0;" parent="1" source="BASvvJVavqTpIo9RgMH1-2014" target="BASvvJVavqTpIo9RgMH1-2031" edge="1">
          <mxGeometry width="50" height="50" relative="1" as="geometry">
            <mxPoint x="-1108" y="14594" as="sourcePoint" />
            <mxPoint x="-982" y="14410" as="targetPoint" />
          </mxGeometry>
        </mxCell>
        <mxCell id="BASvvJVavqTpIo9RgMH1-2033" value="*((&lt;b style=&quot;color: rgb(255, 51, 51);&quot;&gt;int4 *&lt;/b&gt;)(src_gmem_warp_stream_ptr + (i * 2 + lane_id / 16) * N) + lane_id % 16)&lt;div&gt;(lane_id=1)&lt;/div&gt;" style="rounded=1;whiteSpace=wrap;html=1;" parent="1" vertex="1">
          <mxGeometry x="-745.9" y="14985" width="467" height="44" as="geometry" />
        </mxCell>
        <mxCell id="BASvvJVavqTpIo9RgMH1-2037" value="lane_id=0" style="rounded=0;whiteSpace=wrap;html=1;" parent="1" vertex="1">
          <mxGeometry x="-639" y="15169.62" width="70.19" height="20" as="geometry" />
        </mxCell>
        <mxCell id="BASvvJVavqTpIo9RgMH1-2038" value="..." style="rounded=0;whiteSpace=wrap;html=1;" parent="1" vertex="1">
          <mxGeometry x="-638.24" y="15129.62" width="280" height="40" as="geometry" />
        </mxCell>
        <mxCell id="BASvvJVavqTpIo9RgMH1-2039" value="i=0" style="rounded=0;whiteSpace=wrap;html=1;" parent="1" vertex="1">
          <mxGeometry x="-638" y="15089.62" width="280" height="40" as="geometry" />
        </mxCell>
        <mxCell id="BASvvJVavqTpIo9RgMH1-2040" value="" style="shape=curlyBracket;whiteSpace=wrap;html=1;rounded=1;flipH=1;labelPosition=right;verticalLabelPosition=middle;align=left;verticalAlign=middle;rotation=-90;" parent="1" vertex="1">
          <mxGeometry x="-507.74999999999994" y="14938.37" width="20" height="282.5" as="geometry" />
        </mxCell>
        <mxCell id="BASvvJVavqTpIo9RgMH1-2041" value="lane_id=16" style="rounded=0;whiteSpace=wrap;html=1;" parent="1" vertex="1">
          <mxGeometry x="-639" y="15189.62" width="70.19" height="20" as="geometry" />
        </mxCell>
        <mxCell id="BASvvJVavqTpIo9RgMH1-2042" value="lane_id=1" style="rounded=0;whiteSpace=wrap;html=1;" parent="1" vertex="1">
          <mxGeometry x="-568.81" y="15169.62" width="70.19" height="20" as="geometry" />
        </mxCell>
        <mxCell id="BASvvJVavqTpIo9RgMH1-2043" value="..." style="rounded=0;whiteSpace=wrap;html=1;" parent="1" vertex="1">
          <mxGeometry x="-498.61999999999983" y="15169.62" width="70.19" height="20" as="geometry" />
        </mxCell>
        <mxCell id="BASvvJVavqTpIo9RgMH1-2044" value="lane_id=15" style="rounded=0;whiteSpace=wrap;html=1;" parent="1" vertex="1">
          <mxGeometry x="-428.4299999999998" y="15169.62" width="70.19" height="20" as="geometry" />
        </mxCell>
        <mxCell id="BASvvJVavqTpIo9RgMH1-2045" value="lane_id=17" style="rounded=0;whiteSpace=wrap;html=1;" parent="1" vertex="1">
          <mxGeometry x="-568.81" y="15189.62" width="70.19" height="20" as="geometry" />
        </mxCell>
        <mxCell id="BASvvJVavqTpIo9RgMH1-2046" value="..." style="rounded=0;whiteSpace=wrap;html=1;" parent="1" vertex="1">
          <mxGeometry x="-498.61999999999983" y="15189.62" width="70.19" height="20" as="geometry" />
        </mxCell>
        <mxCell id="BASvvJVavqTpIo9RgMH1-2047" value="lane_id=31" style="rounded=0;whiteSpace=wrap;html=1;" parent="1" vertex="1">
          <mxGeometry x="-428.4299999999998" y="15189.62" width="70.19" height="20" as="geometry" />
        </mxCell>
        <mxCell id="BASvvJVavqTpIo9RgMH1-2048" value="" style="shape=curlyBracket;whiteSpace=wrap;html=1;rounded=1;labelPosition=left;verticalLabelPosition=middle;align=right;verticalAlign=middle;rotation=90;" parent="1" vertex="1">
          <mxGeometry x="-614.3599999999999" y="15126.44" width="20" height="66.88" as="geometry" />
        </mxCell>
        <mxCell id="BASvvJVavqTpIo9RgMH1-2049" value="" style="shape=curlyBracket;whiteSpace=wrap;html=1;rounded=1;labelPosition=left;verticalLabelPosition=middle;align=right;verticalAlign=middle;rotation=90;" parent="1" vertex="1">
          <mxGeometry x="-543.7199999999998" y="15126.44" width="20" height="66.88" as="geometry" />
        </mxCell>
        <mxCell id="BASvvJVavqTpIo9RgMH1-2050" value="" style="shape=curlyBracket;whiteSpace=wrap;html=1;rounded=1;labelPosition=left;verticalLabelPosition=middle;align=right;verticalAlign=middle;rotation=90;" parent="1" vertex="1">
          <mxGeometry x="-403.33999999999963" y="15126.44" width="20" height="66.88" as="geometry" />
        </mxCell>
        <mxCell id="BASvvJVavqTpIo9RgMH1-2051" value="&lt;span style=&quot;color: rgb(51, 51, 51); font-family: &amp;quot;Open Sans&amp;quot;, &amp;quot;Clear Sans&amp;quot;, &amp;quot;Helvetica Neue&amp;quot;, Helvetica, Arial, &amp;quot;Segoe UI Emoji&amp;quot;, sans-serif; font-size: 16px; font-style: normal; font-variant-ligatures: normal; font-variant-caps: normal; font-weight: 400; letter-spacing: normal; orphans: 4; text-align: left; text-indent: 0px; text-transform: none; widows: 2; word-spacing: 0px; -webkit-text-stroke-width: 0px; caret-color: rgb(51, 51, 51); white-space: pre-wrap; background-color: rgb(251, 251, 251); text-decoration-thickness: initial; text-decoration-style: initial; text-decoration-color: initial; display: inline !important; float: none;&quot;&gt;int4&lt;/span&gt;" style="text;whiteSpace=wrap;html=1;" parent="1" vertex="1">
          <mxGeometry x="-619.3599999999999" y="15126.44" width="30" height="30" as="geometry" />
        </mxCell>
        <mxCell id="BASvvJVavqTpIo9RgMH1-2052" value="&lt;span style=&quot;color: rgb(51, 51, 51); font-family: &amp;quot;Open Sans&amp;quot;, &amp;quot;Clear Sans&amp;quot;, &amp;quot;Helvetica Neue&amp;quot;, Helvetica, Arial, &amp;quot;Segoe UI Emoji&amp;quot;, sans-serif; font-size: 16px; font-style: normal; font-variant-ligatures: normal; font-variant-caps: normal; font-weight: 400; letter-spacing: normal; orphans: 4; text-align: left; text-indent: 0px; text-transform: none; widows: 2; word-spacing: 0px; -webkit-text-stroke-width: 0px; caret-color: rgb(51, 51, 51); white-space: pre-wrap; background-color: rgb(251, 251, 251); text-decoration-thickness: initial; text-decoration-style: initial; text-decoration-color: initial; display: inline !important; float: none;&quot;&gt;int4&lt;/span&gt;" style="text;whiteSpace=wrap;html=1;" parent="1" vertex="1">
          <mxGeometry x="-549" y="15126.44" width="30" height="30" as="geometry" />
        </mxCell>
        <mxCell id="BASvvJVavqTpIo9RgMH1-2053" value="&lt;span style=&quot;color: rgb(51, 51, 51); font-family: &amp;quot;Open Sans&amp;quot;, &amp;quot;Clear Sans&amp;quot;, &amp;quot;Helvetica Neue&amp;quot;, Helvetica, Arial, &amp;quot;Segoe UI Emoji&amp;quot;, sans-serif; font-size: 16px; font-style: normal; font-variant-ligatures: normal; font-variant-caps: normal; font-weight: 400; letter-spacing: normal; orphans: 4; text-align: left; text-indent: 0px; text-transform: none; widows: 2; word-spacing: 0px; -webkit-text-stroke-width: 0px; caret-color: rgb(51, 51, 51); white-space: pre-wrap; background-color: rgb(251, 251, 251); text-decoration-thickness: initial; text-decoration-style: initial; text-decoration-color: initial; display: inline !important; float: none;&quot;&gt;int4&lt;/span&gt;" style="text;whiteSpace=wrap;html=1;" parent="1" vertex="1">
          <mxGeometry x="-403.33999999999986" y="15126.44" width="30" height="30" as="geometry" />
        </mxCell>
        <mxCell id="BASvvJVavqTpIo9RgMH1-2054" value="..." style="rounded=0;whiteSpace=wrap;html=1;" parent="1" vertex="1">
          <mxGeometry x="-638.5" y="15209.62" width="280" height="40" as="geometry" />
        </mxCell>
        <mxCell id="BASvvJVavqTpIo9RgMH1-2055" value="i=15" style="rounded=0;whiteSpace=wrap;html=1;" parent="1" vertex="1">
          <mxGeometry x="-638.75" y="15249.62" width="280" height="40" as="geometry" />
        </mxCell>
        <mxCell id="BASvvJVavqTpIo9RgMH1-2056" value="" style="shape=curlyBracket;whiteSpace=wrap;html=1;rounded=1;flipH=1;labelPosition=right;verticalLabelPosition=middle;align=left;verticalAlign=middle;" parent="1" vertex="1">
          <mxGeometry x="-358.97999999999996" y="15170.62" width="20" height="38.75" as="geometry" />
        </mxCell>
        <mxCell id="BASvvJVavqTpIo9RgMH1-2057" value="i=(0,1,...,15)" style="text;html=1;align=center;verticalAlign=middle;resizable=0;points=[];autosize=1;strokeColor=none;fillColor=none;" parent="1" vertex="1">
          <mxGeometry x="-347.00999999999993" y="15175" width="90" height="30" as="geometry" />
        </mxCell>
        <mxCell id="BASvvJVavqTpIo9RgMH1-2058" value="" style="whiteSpace=wrap;html=1;aspect=fixed;fillColor=#d5e8d4;strokeColor=#82b366;" parent="1" vertex="1">
          <mxGeometry x="-568.81" y="15169.62" width="11" height="11" as="geometry" />
        </mxCell>
        <mxCell id="BASvvJVavqTpIo9RgMH1-2059" value="&lt;span style=&quot;color: rgb(51, 51, 51); font-family: &amp;quot;Open Sans&amp;quot;, &amp;quot;Clear Sans&amp;quot;, &amp;quot;Helvetica Neue&amp;quot;, Helvetica, Arial, &amp;quot;Segoe UI Emoji&amp;quot;, sans-serif; font-size: 16px; orphans: 4; text-align: left; caret-color: rgb(51, 51, 51); white-space: pre-wrap;&quot;&gt;128=16*int4&lt;/span&gt;" style="text;html=1;align=center;verticalAlign=middle;resizable=0;points=[];autosize=1;strokeColor=none;fillColor=none;" parent="1" vertex="1">
          <mxGeometry x="-549.0000000000001" y="15040" width="110" height="30" as="geometry" />
        </mxCell>
        <mxCell id="BASvvJVavqTpIo9RgMH1-2060" value="&lt;div&gt;*(&lt;b&gt;&lt;font color=&quot;#ff3333&quot;&gt;(int4 *)&lt;/font&gt;&lt;/b&gt;(smem_warp_stream_ptr + (i * 2 + lane_id / 16) * C_SMEM_STRIDE) +&lt;/div&gt;&lt;div style=&quot;&quot;&gt;&amp;nbsp; &amp;nbsp; &amp;nbsp; &amp;nbsp; &amp;nbsp; &amp;nbsp; &amp;nbsp; &amp;nbsp; (lane_id % 16 +&amp;nbsp;&lt;span style=&quot;background-color: initial;&quot;&gt;(i * 2 + lane_id / 16) % 8) %&amp;nbsp;&lt;/span&gt;&lt;/div&gt;&lt;div style=&quot;&quot;&gt;&lt;span style=&quot;background-color: initial;&quot;&gt;&lt;span style=&quot;white-space: pre;&quot;&gt;&#x9;&lt;/span&gt;&lt;span style=&quot;white-space: pre;&quot;&gt;&#x9;&lt;/span&gt;(C_SMEM_STRIDE * sizeof(half) / THREAD_COPY_BYTES));&lt;/span&gt;&lt;/div&gt;" style="rounded=1;whiteSpace=wrap;html=1;align=left;" parent="1" vertex="1">
          <mxGeometry x="-129.9999999999999" y="15930" width="445.82" height="58.75" as="geometry" />
        </mxCell>
        <mxCell id="BASvvJVavqTpIo9RgMH1-2064" style="edgeStyle=orthogonalEdgeStyle;rounded=0;orthogonalLoop=1;jettySize=auto;html=1;entryX=0.002;entryY=0.589;entryDx=0;entryDy=0;entryPerimeter=0;" parent="1" source="BASvvJVavqTpIo9RgMH1-2029" target="BASvvJVavqTpIo9RgMH1-2062" edge="1">
          <mxGeometry relative="1" as="geometry" />
        </mxCell>
        <mxCell id="BASvvJVavqTpIo9RgMH1-2065" value="" style="curved=1;endArrow=classic;html=1;rounded=0;exitX=1;exitY=0;exitDx=0;exitDy=0;entryX=0;entryY=0.5;entryDx=0;entryDy=0;" parent="1" source="BASvvJVavqTpIo9RgMH1-2011" target="BASvvJVavqTpIo9RgMH1-2063" edge="1">
          <mxGeometry width="50" height="50" relative="1" as="geometry">
            <mxPoint x="-1550" y="14930" as="sourcePoint" />
            <mxPoint x="-1500" y="14880" as="targetPoint" />
            <Array as="points">
              <mxPoint x="-1450" y="15060" />
            </Array>
          </mxGeometry>
        </mxCell>
        <mxCell id="BASvvJVavqTpIo9RgMH1-2067" style="edgeStyle=orthogonalEdgeStyle;rounded=0;orthogonalLoop=1;jettySize=auto;html=1;entryX=0.5;entryY=0;entryDx=0;entryDy=0;" parent="1" source="BASvvJVavqTpIo9RgMH1-2066" target="BASvvJVavqTpIo9RgMH1-2010" edge="1">
          <mxGeometry relative="1" as="geometry" />
        </mxCell>
        <mxCell id="BASvvJVavqTpIo9RgMH1-2066" value="&lt;div&gt;&lt;font color=&quot;#cc0000&quot; style=&quot;font-size: 21px;&quot;&gt;&lt;b&gt;Matrix C&lt;/b&gt;&lt;/font&gt;&lt;/div&gt;" style="shape=hexagon;perimeter=hexagonPerimeter2;whiteSpace=wrap;html=1;fixedSize=1;" parent="1" vertex="1">
          <mxGeometry x="-1633.15" y="14900" width="189.45" height="80" as="geometry" />
        </mxCell>
        <mxCell id="BASvvJVavqTpIo9RgMH1-2068" value="" style="curved=1;endArrow=classic;html=1;rounded=0;exitX=1;exitY=0.5;exitDx=0;exitDy=0;entryX=1;entryY=0.5;entryDx=0;entryDy=0;" parent="1" source="BASvvJVavqTpIo9RgMH1-2062" target="BASvvJVavqTpIo9RgMH1-2063" edge="1">
          <mxGeometry width="50" height="50" relative="1" as="geometry">
            <mxPoint x="-90" y="14600" as="sourcePoint" />
            <mxPoint x="-120" y="14780" as="targetPoint" />
            <Array as="points">
              <mxPoint x="-40" y="15410" />
            </Array>
          </mxGeometry>
        </mxCell>
        <mxCell id="BASvvJVavqTpIo9RgMH1-2070" value="&lt;font style=&quot;font-size: 24px;&quot;&gt;&lt;b&gt;assgin&lt;/b&gt;&lt;/font&gt;" style="edgeLabel;html=1;align=center;verticalAlign=middle;resizable=0;points=[];" parent="BASvvJVavqTpIo9RgMH1-2068" vertex="1" connectable="0">
          <mxGeometry x="-0.1558" y="-54" relative="1" as="geometry">
            <mxPoint x="-79" y="-62" as="offset" />
          </mxGeometry>
        </mxCell>
        <mxCell id="BASvvJVavqTpIo9RgMH1-2069" value="" style="curved=1;endArrow=classic;html=1;rounded=0;exitX=0.9;exitY=0.5;exitDx=0;exitDy=0;entryX=0;entryY=1;entryDx=0;entryDy=0;exitPerimeter=0;" parent="1" source="BASvvJVavqTpIo9RgMH1-2016" target="BASvvJVavqTpIo9RgMH1-2039" edge="1">
          <mxGeometry width="50" height="50" relative="1" as="geometry">
            <mxPoint x="-800.29" y="15148.22" as="sourcePoint" />
            <mxPoint x="-612.29" y="15124.22" as="targetPoint" />
            <Array as="points">
              <mxPoint x="-789.98" y="15104.22" />
              <mxPoint x="-673.98" y="15054.22" />
            </Array>
          </mxGeometry>
        </mxCell>
        <mxCell id="R3JpHnB4mjBOynfH0rHO-2" value="" style="endArrow=classic;html=1;rounded=0;exitX=0.25;exitY=0;exitDx=0;exitDy=0;entryX=0.25;entryY=1;entryDx=0;entryDy=0;" parent="1" source="BASvvJVavqTpIo9RgMH1-2058" target="BASvvJVavqTpIo9RgMH1-2033" edge="1">
          <mxGeometry width="50" height="50" relative="1" as="geometry">
            <mxPoint x="-650" y="14880" as="sourcePoint" />
            <mxPoint x="-600" y="14830" as="targetPoint" />
          </mxGeometry>
        </mxCell>
        <mxCell id="ec-a_IO9oX3N2aJ7Yq7e-153" style="edgeStyle=orthogonalEdgeStyle;rounded=0;orthogonalLoop=1;jettySize=auto;html=1;entryX=0.5;entryY=1;entryDx=0;entryDy=0;" edge="1" parent="1" source="ec-a_IO9oX3N2aJ7Yq7e-3" target="ec-a_IO9oX3N2aJ7Yq7e-4">
          <mxGeometry relative="1" as="geometry" />
        </mxCell>
        <mxCell id="ec-a_IO9oX3N2aJ7Yq7e-3" value="&lt;b style=&quot;font-size: 17px;&quot;&gt;lane_id=0&lt;/b&gt;" style="rounded=0;whiteSpace=wrap;html=1;fillColor=#60a917;strokeColor=#2D7600;fontColor=#ffffff;" vertex="1" parent="1">
          <mxGeometry x="-1580.6599999999999" y="16193.99" width="110" height="40" as="geometry" />
        </mxCell>
        <mxCell id="ec-a_IO9oX3N2aJ7Yq7e-4" value="&lt;font style=&quot;font-size: 16px;&quot;&gt;&lt;b&gt;bank0~3&lt;/b&gt;&lt;/font&gt;" style="rounded=1;whiteSpace=wrap;html=1;" vertex="1" parent="1">
          <mxGeometry x="-1572.8400000000001" y="16141.83" width="95.03" height="30" as="geometry" />
        </mxCell>
        <mxCell id="ec-a_IO9oX3N2aJ7Yq7e-5" value="&lt;font style=&quot;font-size: 16px;&quot;&gt;&lt;b&gt;bank4~7&lt;/b&gt;&lt;/font&gt;" style="rounded=1;whiteSpace=wrap;html=1;" vertex="1" parent="1">
          <mxGeometry x="-1462.8400000000001" y="16141.83" width="95.03" height="30" as="geometry" />
        </mxCell>
        <mxCell id="ec-a_IO9oX3N2aJ7Yq7e-6" value="&lt;font style=&quot;font-size: 16px;&quot;&gt;&lt;b&gt;bank8~11&lt;/b&gt;&lt;/font&gt;" style="rounded=1;whiteSpace=wrap;html=1;" vertex="1" parent="1">
          <mxGeometry x="-1352.8400000000001" y="16141.83" width="95.03" height="30" as="geometry" />
        </mxCell>
        <mxCell id="ec-a_IO9oX3N2aJ7Yq7e-7" value="&lt;font style=&quot;font-size: 16px;&quot;&gt;&lt;b&gt;bank12~15&lt;/b&gt;&lt;/font&gt;" style="rounded=1;whiteSpace=wrap;html=1;" vertex="1" parent="1">
          <mxGeometry x="-1242.83" y="16141.83" width="95.03" height="30" as="geometry" />
        </mxCell>
        <mxCell id="ec-a_IO9oX3N2aJ7Yq7e-8" value="&lt;font style=&quot;font-size: 16px;&quot;&gt;&lt;b&gt;bank16~19&lt;/b&gt;&lt;/font&gt;" style="rounded=1;whiteSpace=wrap;html=1;" vertex="1" parent="1">
          <mxGeometry x="-1132.8299999999997" y="16141.83" width="95.03" height="30" as="geometry" />
        </mxCell>
        <mxCell id="ec-a_IO9oX3N2aJ7Yq7e-9" value="&lt;font style=&quot;font-size: 16px;&quot;&gt;&lt;b&gt;bank20~23&lt;/b&gt;&lt;/font&gt;" style="rounded=1;whiteSpace=wrap;html=1;" vertex="1" parent="1">
          <mxGeometry x="-1022.8299999999999" y="16141.83" width="95.03" height="30" as="geometry" />
        </mxCell>
        <mxCell id="ec-a_IO9oX3N2aJ7Yq7e-10" value="&lt;font style=&quot;font-size: 16px;&quot;&gt;&lt;b&gt;bank24~27&lt;/b&gt;&lt;/font&gt;" style="rounded=1;whiteSpace=wrap;html=1;" vertex="1" parent="1">
          <mxGeometry x="-912.8299999999998" y="16141.83" width="95.03" height="30" as="geometry" />
        </mxCell>
        <mxCell id="ec-a_IO9oX3N2aJ7Yq7e-11" value="&lt;font style=&quot;font-size: 16px;&quot;&gt;&lt;b&gt;bank28~31&lt;/b&gt;&lt;/font&gt;" style="rounded=1;whiteSpace=wrap;html=1;" vertex="1" parent="1">
          <mxGeometry x="-802.8299999999998" y="16141.83" width="95.03" height="30" as="geometry" />
        </mxCell>
        <mxCell id="ec-a_IO9oX3N2aJ7Yq7e-152" style="edgeStyle=orthogonalEdgeStyle;rounded=0;orthogonalLoop=1;jettySize=auto;html=1;entryX=0.5;entryY=1;entryDx=0;entryDy=0;" edge="1" parent="1" source="ec-a_IO9oX3N2aJ7Yq7e-13" target="ec-a_IO9oX3N2aJ7Yq7e-5">
          <mxGeometry relative="1" as="geometry" />
        </mxCell>
        <mxCell id="ec-a_IO9oX3N2aJ7Yq7e-13" value="&lt;b style=&quot;font-size: 17px;&quot;&gt;lane_id=1&lt;/b&gt;" style="rounded=0;whiteSpace=wrap;html=1;fillColor=#1ba1e2;strokeColor=#006EAF;fontColor=#ffffff;" vertex="1" parent="1">
          <mxGeometry x="-1470.66" y="16193.99" width="110" height="40" as="geometry" />
        </mxCell>
        <mxCell id="ec-a_IO9oX3N2aJ7Yq7e-14" style="edgeStyle=orthogonalEdgeStyle;rounded=0;orthogonalLoop=1;jettySize=auto;html=1;entryX=0.5;entryY=1;entryDx=0;entryDy=0;" edge="1" parent="1" target="ec-a_IO9oX3N2aJ7Yq7e-6">
          <mxGeometry relative="1" as="geometry">
            <mxPoint x="-1304.25" y="16193.99" as="sourcePoint" />
          </mxGeometry>
        </mxCell>
        <mxCell id="ec-a_IO9oX3N2aJ7Yq7e-15" value="&lt;b style=&quot;font-size: 17px;&quot;&gt;lane_id=2&lt;/b&gt;" style="rounded=0;whiteSpace=wrap;html=1;fillColor=#0050ef;strokeColor=#001DBC;fontColor=#ffffff;" vertex="1" parent="1">
          <mxGeometry x="-1360.66" y="16193.99" width="110" height="40" as="geometry" />
        </mxCell>
        <mxCell id="ec-a_IO9oX3N2aJ7Yq7e-16" style="edgeStyle=orthogonalEdgeStyle;rounded=0;orthogonalLoop=1;jettySize=auto;html=1;entryX=0.5;entryY=1;entryDx=0;entryDy=0;" edge="1" parent="1" target="ec-a_IO9oX3N2aJ7Yq7e-7">
          <mxGeometry relative="1" as="geometry">
            <mxPoint x="-1194.25" y="16193.99" as="sourcePoint" />
          </mxGeometry>
        </mxCell>
        <mxCell id="ec-a_IO9oX3N2aJ7Yq7e-17" value="&lt;b style=&quot;font-size: 17px;&quot;&gt;lane_id=3&lt;/b&gt;" style="rounded=0;whiteSpace=wrap;html=1;fillColor=#d80073;strokeColor=#A50040;fontColor=#ffffff;" vertex="1" parent="1">
          <mxGeometry x="-1250.66" y="16193.99" width="110" height="40" as="geometry" />
        </mxCell>
        <mxCell id="ec-a_IO9oX3N2aJ7Yq7e-18" style="edgeStyle=orthogonalEdgeStyle;rounded=0;orthogonalLoop=1;jettySize=auto;html=1;entryX=0.5;entryY=1;entryDx=0;entryDy=0;" edge="1" parent="1" target="ec-a_IO9oX3N2aJ7Yq7e-8">
          <mxGeometry relative="1" as="geometry">
            <mxPoint x="-1084.25" y="16193.99" as="sourcePoint" />
          </mxGeometry>
        </mxCell>
        <mxCell id="ec-a_IO9oX3N2aJ7Yq7e-19" value="&lt;b style=&quot;font-size: 17px;&quot;&gt;lane_id=4&lt;/b&gt;" style="rounded=0;whiteSpace=wrap;html=1;fillColor=#6d8764;strokeColor=#3A5431;fontColor=#ffffff;" vertex="1" parent="1">
          <mxGeometry x="-1140.6599999999999" y="16193.99" width="110" height="40" as="geometry" />
        </mxCell>
        <mxCell id="ec-a_IO9oX3N2aJ7Yq7e-20" style="edgeStyle=orthogonalEdgeStyle;rounded=0;orthogonalLoop=1;jettySize=auto;html=1;entryX=0.5;entryY=1;entryDx=0;entryDy=0;" edge="1" parent="1" target="ec-a_IO9oX3N2aJ7Yq7e-9">
          <mxGeometry relative="1" as="geometry">
            <mxPoint x="-974.25" y="16193.99" as="sourcePoint" />
          </mxGeometry>
        </mxCell>
        <mxCell id="ec-a_IO9oX3N2aJ7Yq7e-21" value="&lt;b style=&quot;color: rgb(255, 255, 255); font-size: 17px;&quot;&gt;lane_id=5&lt;/b&gt;" style="rounded=0;whiteSpace=wrap;html=1;fillColor=#fa6800;strokeColor=#C73500;fontColor=#000000;" vertex="1" parent="1">
          <mxGeometry x="-1030.6599999999999" y="16193.99" width="110" height="40" as="geometry" />
        </mxCell>
        <mxCell id="ec-a_IO9oX3N2aJ7Yq7e-22" style="edgeStyle=orthogonalEdgeStyle;rounded=0;orthogonalLoop=1;jettySize=auto;html=1;entryX=0.5;entryY=1;entryDx=0;entryDy=0;" edge="1" parent="1" target="ec-a_IO9oX3N2aJ7Yq7e-10">
          <mxGeometry relative="1" as="geometry">
            <mxPoint x="-864.25" y="16193.99" as="sourcePoint" />
          </mxGeometry>
        </mxCell>
        <mxCell id="ec-a_IO9oX3N2aJ7Yq7e-23" value="&lt;b style=&quot;font-size: 17px;&quot;&gt;lane_id=6&lt;/b&gt;" style="rounded=0;whiteSpace=wrap;html=1;fillColor=#647687;strokeColor=#314354;fontColor=#ffffff;" vertex="1" parent="1">
          <mxGeometry x="-920.6599999999999" y="16193.99" width="110" height="40" as="geometry" />
        </mxCell>
        <mxCell id="ec-a_IO9oX3N2aJ7Yq7e-154" style="edgeStyle=orthogonalEdgeStyle;rounded=0;orthogonalLoop=1;jettySize=auto;html=1;" edge="1" parent="1" source="ec-a_IO9oX3N2aJ7Yq7e-25" target="ec-a_IO9oX3N2aJ7Yq7e-11">
          <mxGeometry relative="1" as="geometry" />
        </mxCell>
        <mxCell id="ec-a_IO9oX3N2aJ7Yq7e-25" value="&lt;b style=&quot;color: rgb(255, 255, 255); font-size: 17px;&quot;&gt;lane_id=7&lt;/b&gt;" style="rounded=0;whiteSpace=wrap;html=1;fillColor=#e3c800;strokeColor=#B09500;fontColor=#000000;" vertex="1" parent="1">
          <mxGeometry x="-810.6599999999999" y="16193.99" width="110" height="40" as="geometry" />
        </mxCell>
        <mxCell id="ec-a_IO9oX3N2aJ7Yq7e-26" value="&lt;b style=&quot;font-size: 17px;&quot;&gt;lane_id=16&lt;/b&gt;" style="rounded=0;whiteSpace=wrap;html=1;fillColor=#60a917;strokeColor=#2D7600;fontColor=#ffffff;" vertex="1" parent="1">
          <mxGeometry x="-1470.66" y="16233.99" width="110" height="40" as="geometry" />
        </mxCell>
        <mxCell id="ec-a_IO9oX3N2aJ7Yq7e-27" value="&lt;b style=&quot;font-size: 17px;&quot;&gt;lane_id=17&lt;/b&gt;" style="rounded=0;whiteSpace=wrap;html=1;fillColor=#1ba1e2;strokeColor=#006EAF;fontColor=#ffffff;" vertex="1" parent="1">
          <mxGeometry x="-1360.66" y="16233.99" width="110" height="40" as="geometry" />
        </mxCell>
        <mxCell id="ec-a_IO9oX3N2aJ7Yq7e-28" value="&lt;b style=&quot;font-size: 17px;&quot;&gt;lane_id=18&lt;/b&gt;" style="rounded=0;whiteSpace=wrap;html=1;fillColor=#0050ef;strokeColor=#001DBC;fontColor=#ffffff;" vertex="1" parent="1">
          <mxGeometry x="-1250.66" y="16233.99" width="110" height="40" as="geometry" />
        </mxCell>
        <mxCell id="ec-a_IO9oX3N2aJ7Yq7e-29" value="&lt;b style=&quot;font-size: 17px;&quot;&gt;lane_id=19&lt;/b&gt;" style="rounded=0;whiteSpace=wrap;html=1;fillColor=#d80073;strokeColor=#A50040;fontColor=#ffffff;" vertex="1" parent="1">
          <mxGeometry x="-1140.6599999999999" y="16233.99" width="110" height="40" as="geometry" />
        </mxCell>
        <mxCell id="ec-a_IO9oX3N2aJ7Yq7e-30" value="&lt;b style=&quot;font-size: 17px;&quot;&gt;lane_id=20&lt;/b&gt;" style="rounded=0;whiteSpace=wrap;html=1;fillColor=#6d8764;strokeColor=#3A5431;fontColor=#ffffff;" vertex="1" parent="1">
          <mxGeometry x="-1030.6599999999999" y="16233.99" width="110" height="40" as="geometry" />
        </mxCell>
        <mxCell id="ec-a_IO9oX3N2aJ7Yq7e-31" value="&lt;b style=&quot;color: rgb(255, 255, 255); font-size: 17px;&quot;&gt;lane_id=21&lt;/b&gt;" style="rounded=0;whiteSpace=wrap;html=1;fillColor=#fa6800;strokeColor=#C73500;fontColor=#000000;" vertex="1" parent="1">
          <mxGeometry x="-920.6599999999999" y="16233.99" width="110" height="40" as="geometry" />
        </mxCell>
        <mxCell id="ec-a_IO9oX3N2aJ7Yq7e-32" value="&lt;b style=&quot;font-size: 17px;&quot;&gt;lane_id=22&lt;/b&gt;" style="rounded=0;whiteSpace=wrap;html=1;fillColor=#647687;strokeColor=#314354;fontColor=#ffffff;" vertex="1" parent="1">
          <mxGeometry x="-810.6599999999999" y="16233.99" width="110" height="40" as="geometry" />
        </mxCell>
        <mxCell id="ec-a_IO9oX3N2aJ7Yq7e-33" value="&lt;b style=&quot;color: rgb(255, 255, 255); font-size: 17px;&quot;&gt;lane_id=31&lt;/b&gt;" style="rounded=0;whiteSpace=wrap;html=1;fillColor=#e3c800;strokeColor=#B09500;fontColor=#000000;" vertex="1" parent="1">
          <mxGeometry x="-1580.6599999999999" y="16233.99" width="110" height="40" as="geometry" />
        </mxCell>
        <mxCell id="ec-a_IO9oX3N2aJ7Yq7e-34" value="&lt;b style=&quot;font-size: 17px;&quot;&gt;lane_id=0&lt;/b&gt;" style="rounded=0;whiteSpace=wrap;html=1;fillColor=#60a917;strokeColor=#2D7600;fontColor=#ffffff;" vertex="1" parent="1">
          <mxGeometry x="-1360.66" y="16273.99" width="110" height="40" as="geometry" />
        </mxCell>
        <mxCell id="ec-a_IO9oX3N2aJ7Yq7e-35" value="&lt;b style=&quot;font-size: 17px;&quot;&gt;lane_id=1&lt;/b&gt;" style="rounded=0;whiteSpace=wrap;html=1;fillColor=#1ba1e2;strokeColor=#006EAF;fontColor=#ffffff;" vertex="1" parent="1">
          <mxGeometry x="-1250.66" y="16273.99" width="110" height="40" as="geometry" />
        </mxCell>
        <mxCell id="ec-a_IO9oX3N2aJ7Yq7e-36" value="&lt;b style=&quot;font-size: 17px;&quot;&gt;lane_id=2&lt;/b&gt;" style="rounded=0;whiteSpace=wrap;html=1;fillColor=#0050ef;strokeColor=#001DBC;fontColor=#ffffff;" vertex="1" parent="1">
          <mxGeometry x="-1140.6599999999999" y="16273.99" width="110" height="40" as="geometry" />
        </mxCell>
        <mxCell id="ec-a_IO9oX3N2aJ7Yq7e-37" value="&lt;b style=&quot;font-size: 17px;&quot;&gt;lane_id=3&lt;/b&gt;" style="rounded=0;whiteSpace=wrap;html=1;fillColor=#d80073;strokeColor=#A50040;fontColor=#ffffff;" vertex="1" parent="1">
          <mxGeometry x="-1030.6599999999999" y="16273.99" width="110" height="40" as="geometry" />
        </mxCell>
        <mxCell id="ec-a_IO9oX3N2aJ7Yq7e-38" value="&lt;b style=&quot;font-size: 17px;&quot;&gt;lane_id=4&lt;/b&gt;" style="rounded=0;whiteSpace=wrap;html=1;fillColor=#6d8764;strokeColor=#3A5431;fontColor=#ffffff;" vertex="1" parent="1">
          <mxGeometry x="-920.6599999999999" y="16273.99" width="110" height="40" as="geometry" />
        </mxCell>
        <mxCell id="ec-a_IO9oX3N2aJ7Yq7e-39" value="&lt;b style=&quot;color: rgb(255, 255, 255); font-size: 17px;&quot;&gt;lane_id=5&lt;/b&gt;" style="rounded=0;whiteSpace=wrap;html=1;fillColor=#fa6800;strokeColor=#C73500;fontColor=#000000;" vertex="1" parent="1">
          <mxGeometry x="-810.6599999999999" y="16273.99" width="110" height="40" as="geometry" />
        </mxCell>
        <mxCell id="ec-a_IO9oX3N2aJ7Yq7e-40" value="&lt;b style=&quot;font-size: 17px;&quot;&gt;lane_id=14&lt;/b&gt;" style="rounded=0;whiteSpace=wrap;html=1;fillColor=#647687;strokeColor=#314354;fontColor=#ffffff;" vertex="1" parent="1">
          <mxGeometry x="-1580.6599999999999" y="16273.99" width="110" height="40" as="geometry" />
        </mxCell>
        <mxCell id="ec-a_IO9oX3N2aJ7Yq7e-41" value="&lt;b style=&quot;color: rgb(255, 255, 255); font-size: 17px;&quot;&gt;lane_id=15&lt;/b&gt;" style="rounded=0;whiteSpace=wrap;html=1;fillColor=#e3c800;strokeColor=#B09500;fontColor=#000000;" vertex="1" parent="1">
          <mxGeometry x="-1470.66" y="16273.99" width="110" height="40" as="geometry" />
        </mxCell>
        <mxCell id="ec-a_IO9oX3N2aJ7Yq7e-42" value="&lt;b style=&quot;font-size: 17px;&quot;&gt;lane_id=16&lt;/b&gt;" style="rounded=0;whiteSpace=wrap;html=1;fillColor=#60a917;strokeColor=#2D7600;fontColor=#ffffff;" vertex="1" parent="1">
          <mxGeometry x="-1250.66" y="16313.99" width="110" height="40" as="geometry" />
        </mxCell>
        <mxCell id="ec-a_IO9oX3N2aJ7Yq7e-43" value="&lt;b style=&quot;font-size: 17px;&quot;&gt;lane_id=17&lt;/b&gt;" style="rounded=0;whiteSpace=wrap;html=1;fillColor=#1ba1e2;strokeColor=#006EAF;fontColor=#ffffff;" vertex="1" parent="1">
          <mxGeometry x="-1140.6599999999999" y="16313.99" width="110" height="40" as="geometry" />
        </mxCell>
        <mxCell id="ec-a_IO9oX3N2aJ7Yq7e-44" value="&lt;b style=&quot;font-size: 17px;&quot;&gt;lane_id=18&lt;/b&gt;" style="rounded=0;whiteSpace=wrap;html=1;fillColor=#0050ef;strokeColor=#001DBC;fontColor=#ffffff;" vertex="1" parent="1">
          <mxGeometry x="-1030.6599999999999" y="16313.99" width="110" height="40" as="geometry" />
        </mxCell>
        <mxCell id="ec-a_IO9oX3N2aJ7Yq7e-45" value="&lt;b style=&quot;font-size: 17px;&quot;&gt;lane_id=19&lt;/b&gt;" style="rounded=0;whiteSpace=wrap;html=1;fillColor=#d80073;strokeColor=#A50040;fontColor=#ffffff;" vertex="1" parent="1">
          <mxGeometry x="-920.6599999999999" y="16313.99" width="110" height="40" as="geometry" />
        </mxCell>
        <mxCell id="ec-a_IO9oX3N2aJ7Yq7e-46" value="&lt;b style=&quot;font-size: 17px;&quot;&gt;lane_id=20&lt;/b&gt;" style="rounded=0;whiteSpace=wrap;html=1;fillColor=#6d8764;strokeColor=#3A5431;fontColor=#ffffff;" vertex="1" parent="1">
          <mxGeometry x="-810.6599999999999" y="16313.99" width="110" height="40" as="geometry" />
        </mxCell>
        <mxCell id="ec-a_IO9oX3N2aJ7Yq7e-47" value="&lt;b style=&quot;color: rgb(255, 255, 255); font-size: 17px;&quot;&gt;lane_id=29&lt;/b&gt;" style="rounded=0;whiteSpace=wrap;html=1;fillColor=#fa6800;strokeColor=#C73500;fontColor=#000000;" vertex="1" parent="1">
          <mxGeometry x="-1580.6599999999999" y="16313.99" width="110" height="40" as="geometry" />
        </mxCell>
        <mxCell id="ec-a_IO9oX3N2aJ7Yq7e-48" value="&lt;b style=&quot;font-size: 17px;&quot;&gt;lane_id=30&lt;/b&gt;" style="rounded=0;whiteSpace=wrap;html=1;fillColor=#647687;strokeColor=#314354;fontColor=#ffffff;" vertex="1" parent="1">
          <mxGeometry x="-1470.66" y="16313.99" width="110" height="40" as="geometry" />
        </mxCell>
        <mxCell id="ec-a_IO9oX3N2aJ7Yq7e-49" value="&lt;b style=&quot;color: rgb(255, 255, 255); font-size: 17px;&quot;&gt;lane_id=31&lt;/b&gt;" style="rounded=0;whiteSpace=wrap;html=1;fillColor=#e3c800;strokeColor=#B09500;fontColor=#000000;" vertex="1" parent="1">
          <mxGeometry x="-1360.66" y="16313.99" width="110" height="40" as="geometry" />
        </mxCell>
        <mxCell id="ec-a_IO9oX3N2aJ7Yq7e-50" value="&lt;b style=&quot;font-size: 17px;&quot;&gt;lane_id=0&lt;/b&gt;" style="rounded=0;whiteSpace=wrap;html=1;fillColor=#60a917;strokeColor=#2D7600;fontColor=#ffffff;" vertex="1" parent="1">
          <mxGeometry x="-1140.6599999999999" y="16353.99" width="110" height="40" as="geometry" />
        </mxCell>
        <mxCell id="ec-a_IO9oX3N2aJ7Yq7e-51" value="&lt;b style=&quot;font-size: 17px;&quot;&gt;lane_id=1&lt;/b&gt;" style="rounded=0;whiteSpace=wrap;html=1;fillColor=#1ba1e2;strokeColor=#006EAF;fontColor=#ffffff;" vertex="1" parent="1">
          <mxGeometry x="-1030.6599999999999" y="16353.99" width="110" height="40" as="geometry" />
        </mxCell>
        <mxCell id="ec-a_IO9oX3N2aJ7Yq7e-52" value="&lt;b style=&quot;font-size: 17px;&quot;&gt;lane_id=2&lt;/b&gt;" style="rounded=0;whiteSpace=wrap;html=1;fillColor=#0050ef;strokeColor=#001DBC;fontColor=#ffffff;" vertex="1" parent="1">
          <mxGeometry x="-920.6599999999999" y="16353.99" width="110" height="40" as="geometry" />
        </mxCell>
        <mxCell id="ec-a_IO9oX3N2aJ7Yq7e-53" value="&lt;b style=&quot;font-size: 17px;&quot;&gt;lane_id=3&lt;/b&gt;" style="rounded=0;whiteSpace=wrap;html=1;fillColor=#d80073;strokeColor=#A50040;fontColor=#ffffff;" vertex="1" parent="1">
          <mxGeometry x="-810.6599999999999" y="16353.99" width="110" height="40" as="geometry" />
        </mxCell>
        <mxCell id="ec-a_IO9oX3N2aJ7Yq7e-54" value="&lt;b style=&quot;font-size: 17px;&quot;&gt;lane_id=12&lt;/b&gt;" style="rounded=0;whiteSpace=wrap;html=1;fillColor=#6d8764;strokeColor=#3A5431;fontColor=#ffffff;" vertex="1" parent="1">
          <mxGeometry x="-1580.6599999999999" y="16353.99" width="110" height="40" as="geometry" />
        </mxCell>
        <mxCell id="ec-a_IO9oX3N2aJ7Yq7e-55" value="&lt;b style=&quot;color: rgb(255, 255, 255); font-size: 17px;&quot;&gt;lane_id=13&lt;/b&gt;" style="rounded=0;whiteSpace=wrap;html=1;fillColor=#fa6800;strokeColor=#C73500;fontColor=#000000;" vertex="1" parent="1">
          <mxGeometry x="-1470.66" y="16353.99" width="110" height="40" as="geometry" />
        </mxCell>
        <mxCell id="ec-a_IO9oX3N2aJ7Yq7e-56" value="&lt;b style=&quot;font-size: 17px;&quot;&gt;lane_id=14&lt;/b&gt;" style="rounded=0;whiteSpace=wrap;html=1;fillColor=#647687;strokeColor=#314354;fontColor=#ffffff;" vertex="1" parent="1">
          <mxGeometry x="-1360.66" y="16353.99" width="110" height="40" as="geometry" />
        </mxCell>
        <mxCell id="ec-a_IO9oX3N2aJ7Yq7e-57" value="&lt;b style=&quot;color: rgb(255, 255, 255); font-size: 17px;&quot;&gt;lane_id=15&lt;/b&gt;" style="rounded=0;whiteSpace=wrap;html=1;fillColor=#e3c800;strokeColor=#B09500;fontColor=#000000;" vertex="1" parent="1">
          <mxGeometry x="-1250.66" y="16353.99" width="110" height="40" as="geometry" />
        </mxCell>
        <mxCell id="ec-a_IO9oX3N2aJ7Yq7e-58" value="&lt;b style=&quot;font-size: 17px;&quot;&gt;lane_id=16&lt;/b&gt;" style="rounded=0;whiteSpace=wrap;html=1;fillColor=#60a917;strokeColor=#2D7600;fontColor=#ffffff;" vertex="1" parent="1">
          <mxGeometry x="-1030.6599999999999" y="16393.989999999998" width="110" height="40" as="geometry" />
        </mxCell>
        <mxCell id="ec-a_IO9oX3N2aJ7Yq7e-59" value="&lt;b style=&quot;font-size: 17px;&quot;&gt;lane_id=17&lt;/b&gt;" style="rounded=0;whiteSpace=wrap;html=1;fillColor=#1ba1e2;strokeColor=#006EAF;fontColor=#ffffff;" vertex="1" parent="1">
          <mxGeometry x="-920.6599999999999" y="16393.989999999998" width="110" height="40" as="geometry" />
        </mxCell>
        <mxCell id="ec-a_IO9oX3N2aJ7Yq7e-60" value="&lt;b style=&quot;font-size: 17px;&quot;&gt;lane_id=18&lt;/b&gt;" style="rounded=0;whiteSpace=wrap;html=1;fillColor=#0050ef;strokeColor=#001DBC;fontColor=#ffffff;" vertex="1" parent="1">
          <mxGeometry x="-810.6599999999999" y="16393.989999999998" width="110" height="40" as="geometry" />
        </mxCell>
        <mxCell id="ec-a_IO9oX3N2aJ7Yq7e-61" value="&lt;b style=&quot;font-size: 17px;&quot;&gt;lane_id=27&lt;/b&gt;" style="rounded=0;whiteSpace=wrap;html=1;fillColor=#d80073;strokeColor=#A50040;fontColor=#ffffff;" vertex="1" parent="1">
          <mxGeometry x="-1580.6599999999999" y="16393.989999999998" width="110" height="40" as="geometry" />
        </mxCell>
        <mxCell id="ec-a_IO9oX3N2aJ7Yq7e-62" value="&lt;b style=&quot;font-size: 17px;&quot;&gt;lane_id=28&lt;/b&gt;" style="rounded=0;whiteSpace=wrap;html=1;fillColor=#6d8764;strokeColor=#3A5431;fontColor=#ffffff;" vertex="1" parent="1">
          <mxGeometry x="-1470.66" y="16393.989999999998" width="110" height="40" as="geometry" />
        </mxCell>
        <mxCell id="ec-a_IO9oX3N2aJ7Yq7e-63" value="&lt;b style=&quot;color: rgb(255, 255, 255); font-size: 17px;&quot;&gt;lane_id=29&lt;/b&gt;" style="rounded=0;whiteSpace=wrap;html=1;fillColor=#fa6800;strokeColor=#C73500;fontColor=#000000;" vertex="1" parent="1">
          <mxGeometry x="-1360.66" y="16393.989999999998" width="110" height="40" as="geometry" />
        </mxCell>
        <mxCell id="ec-a_IO9oX3N2aJ7Yq7e-64" value="&lt;b style=&quot;font-size: 17px;&quot;&gt;lane_id=30&lt;/b&gt;" style="rounded=0;whiteSpace=wrap;html=1;fillColor=#647687;strokeColor=#314354;fontColor=#ffffff;" vertex="1" parent="1">
          <mxGeometry x="-1250.66" y="16393.989999999998" width="110" height="40" as="geometry" />
        </mxCell>
        <mxCell id="ec-a_IO9oX3N2aJ7Yq7e-65" value="&lt;b style=&quot;color: rgb(255, 255, 255); font-size: 17px;&quot;&gt;lane_id=31&lt;/b&gt;" style="rounded=0;whiteSpace=wrap;html=1;fillColor=#e3c800;strokeColor=#B09500;fontColor=#000000;" vertex="1" parent="1">
          <mxGeometry x="-1140.6599999999999" y="16393.989999999998" width="110" height="40" as="geometry" />
        </mxCell>
        <mxCell id="ec-a_IO9oX3N2aJ7Yq7e-66" value="&lt;b style=&quot;font-size: 17px;&quot;&gt;lane_id=0&lt;/b&gt;" style="rounded=0;whiteSpace=wrap;html=1;fillColor=#60a917;strokeColor=#2D7600;fontColor=#ffffff;" vertex="1" parent="1">
          <mxGeometry x="-920.6599999999999" y="16433.989999999998" width="110" height="40" as="geometry" />
        </mxCell>
        <mxCell id="ec-a_IO9oX3N2aJ7Yq7e-67" value="&lt;b style=&quot;font-size: 17px;&quot;&gt;lane_id=1&lt;/b&gt;" style="rounded=0;whiteSpace=wrap;html=1;fillColor=#1ba1e2;strokeColor=#006EAF;fontColor=#ffffff;" vertex="1" parent="1">
          <mxGeometry x="-810.6599999999999" y="16433.989999999998" width="110" height="40" as="geometry" />
        </mxCell>
        <mxCell id="ec-a_IO9oX3N2aJ7Yq7e-68" value="&lt;b style=&quot;font-size: 17px;&quot;&gt;lane_id=10&lt;/b&gt;" style="rounded=0;whiteSpace=wrap;html=1;fillColor=#0050ef;strokeColor=#001DBC;fontColor=#ffffff;" vertex="1" parent="1">
          <mxGeometry x="-1580.6599999999999" y="16433.989999999998" width="110" height="40" as="geometry" />
        </mxCell>
        <mxCell id="ec-a_IO9oX3N2aJ7Yq7e-69" value="&lt;b style=&quot;font-size: 17px;&quot;&gt;lane_id=11&lt;/b&gt;" style="rounded=0;whiteSpace=wrap;html=1;fillColor=#d80073;strokeColor=#A50040;fontColor=#ffffff;" vertex="1" parent="1">
          <mxGeometry x="-1470.66" y="16433.989999999998" width="110" height="40" as="geometry" />
        </mxCell>
        <mxCell id="ec-a_IO9oX3N2aJ7Yq7e-70" value="&lt;b style=&quot;font-size: 17px;&quot;&gt;lane_id=12&lt;/b&gt;" style="rounded=0;whiteSpace=wrap;html=1;fillColor=#6d8764;strokeColor=#3A5431;fontColor=#ffffff;" vertex="1" parent="1">
          <mxGeometry x="-1360.66" y="16433.989999999998" width="110" height="40" as="geometry" />
        </mxCell>
        <mxCell id="ec-a_IO9oX3N2aJ7Yq7e-71" value="&lt;b style=&quot;color: rgb(255, 255, 255); font-size: 17px;&quot;&gt;lane_id=13&lt;/b&gt;" style="rounded=0;whiteSpace=wrap;html=1;fillColor=#fa6800;strokeColor=#C73500;fontColor=#000000;" vertex="1" parent="1">
          <mxGeometry x="-1250.66" y="16433.989999999998" width="110" height="40" as="geometry" />
        </mxCell>
        <mxCell id="ec-a_IO9oX3N2aJ7Yq7e-72" value="&lt;b style=&quot;font-size: 17px;&quot;&gt;lane_id=14&lt;/b&gt;" style="rounded=0;whiteSpace=wrap;html=1;fillColor=#647687;strokeColor=#314354;fontColor=#ffffff;" vertex="1" parent="1">
          <mxGeometry x="-1140.6599999999999" y="16433.989999999998" width="110" height="40" as="geometry" />
        </mxCell>
        <mxCell id="ec-a_IO9oX3N2aJ7Yq7e-73" value="&lt;b style=&quot;color: rgb(255, 255, 255); font-size: 17px;&quot;&gt;lane_id=15&lt;/b&gt;" style="rounded=0;whiteSpace=wrap;html=1;fillColor=#e3c800;strokeColor=#B09500;fontColor=#000000;" vertex="1" parent="1">
          <mxGeometry x="-1030.6599999999999" y="16433.989999999998" width="110" height="40" as="geometry" />
        </mxCell>
        <mxCell id="ec-a_IO9oX3N2aJ7Yq7e-74" value="&lt;b style=&quot;font-size: 17px;&quot;&gt;lane_id=16&lt;/b&gt;" style="rounded=0;whiteSpace=wrap;html=1;fillColor=#60a917;strokeColor=#2D7600;fontColor=#ffffff;" vertex="1" parent="1">
          <mxGeometry x="-810.6599999999999" y="16473.989999999998" width="110" height="40" as="geometry" />
        </mxCell>
        <mxCell id="ec-a_IO9oX3N2aJ7Yq7e-75" value="&lt;b style=&quot;font-size: 17px;&quot;&gt;lane_id=25&lt;/b&gt;" style="rounded=0;whiteSpace=wrap;html=1;fillColor=#1ba1e2;strokeColor=#006EAF;fontColor=#ffffff;" vertex="1" parent="1">
          <mxGeometry x="-1580.6599999999999" y="16473.989999999998" width="110" height="40" as="geometry" />
        </mxCell>
        <mxCell id="ec-a_IO9oX3N2aJ7Yq7e-76" value="&lt;b style=&quot;font-size: 17px;&quot;&gt;lane_id=26&lt;/b&gt;" style="rounded=0;whiteSpace=wrap;html=1;fillColor=#0050ef;strokeColor=#001DBC;fontColor=#ffffff;" vertex="1" parent="1">
          <mxGeometry x="-1470.66" y="16473.989999999998" width="110" height="40" as="geometry" />
        </mxCell>
        <mxCell id="ec-a_IO9oX3N2aJ7Yq7e-77" value="&lt;b style=&quot;font-size: 17px;&quot;&gt;lane_id=27&lt;/b&gt;" style="rounded=0;whiteSpace=wrap;html=1;fillColor=#d80073;strokeColor=#A50040;fontColor=#ffffff;" vertex="1" parent="1">
          <mxGeometry x="-1360.66" y="16473.989999999998" width="110" height="40" as="geometry" />
        </mxCell>
        <mxCell id="ec-a_IO9oX3N2aJ7Yq7e-78" value="&lt;b style=&quot;font-size: 17px;&quot;&gt;lane_id=28&lt;/b&gt;" style="rounded=0;whiteSpace=wrap;html=1;fillColor=#6d8764;strokeColor=#3A5431;fontColor=#ffffff;" vertex="1" parent="1">
          <mxGeometry x="-1250.66" y="16473.989999999998" width="110" height="40" as="geometry" />
        </mxCell>
        <mxCell id="ec-a_IO9oX3N2aJ7Yq7e-79" value="&lt;b style=&quot;color: rgb(255, 255, 255); font-size: 17px;&quot;&gt;lane_id=29&lt;/b&gt;" style="rounded=0;whiteSpace=wrap;html=1;fillColor=#fa6800;strokeColor=#C73500;fontColor=#000000;" vertex="1" parent="1">
          <mxGeometry x="-1140.6599999999999" y="16473.989999999998" width="110" height="40" as="geometry" />
        </mxCell>
        <mxCell id="ec-a_IO9oX3N2aJ7Yq7e-80" value="&lt;b style=&quot;font-size: 17px;&quot;&gt;lane_id=30&lt;/b&gt;" style="rounded=0;whiteSpace=wrap;html=1;fillColor=#647687;strokeColor=#314354;fontColor=#ffffff;" vertex="1" parent="1">
          <mxGeometry x="-1030.6599999999999" y="16473.989999999998" width="110" height="40" as="geometry" />
        </mxCell>
        <mxCell id="ec-a_IO9oX3N2aJ7Yq7e-81" value="&lt;b style=&quot;color: rgb(255, 255, 255); font-size: 17px;&quot;&gt;lane_id=31&lt;/b&gt;" style="rounded=0;whiteSpace=wrap;html=1;fillColor=#e3c800;strokeColor=#B09500;fontColor=#000000;" vertex="1" parent="1">
          <mxGeometry x="-920.6599999999999" y="16473.989999999998" width="110" height="40" as="geometry" />
        </mxCell>
        <mxCell id="ec-a_IO9oX3N2aJ7Yq7e-82" value="" style="shape=curlyBracket;whiteSpace=wrap;html=1;rounded=1;labelPosition=left;verticalLabelPosition=middle;align=right;verticalAlign=middle;rotation=-90;size=0.5;" vertex="1" parent="1">
          <mxGeometry x="-698.1500000000001" y="15630" width="46.08" height="1810" as="geometry" />
        </mxCell>
        <mxCell id="ec-a_IO9oX3N2aJ7Yq7e-83" value="&lt;font style=&quot;font-size: 19px;&quot;&gt;128*half&lt;/font&gt;" style="text;html=1;align=center;verticalAlign=middle;resizable=0;points=[];autosize=1;strokeColor=none;fillColor=none;" vertex="1" parent="1">
          <mxGeometry x="-720.1100000000001" y="16555.62" width="90" height="40" as="geometry" />
        </mxCell>
        <mxCell id="ec-a_IO9oX3N2aJ7Yq7e-84" value="" style="rounded=1;whiteSpace=wrap;html=1;fillStyle=hatch;fillColor=#a20025;strokeWidth=2;fontColor=#ffffff;strokeColor=#6F0000;" vertex="1" parent="1">
          <mxGeometry x="-599.49" y="15680" width="281.49" height="120" as="geometry" />
        </mxCell>
        <mxCell id="ec-a_IO9oX3N2aJ7Yq7e-85" value="" style="shape=curlyBracket;whiteSpace=wrap;html=1;rounded=1;flipH=1;labelPosition=right;verticalLabelPosition=middle;align=left;verticalAlign=middle;" vertex="1" parent="1">
          <mxGeometry x="-318" y="15680" width="20" height="120" as="geometry" />
        </mxCell>
        <mxCell id="ec-a_IO9oX3N2aJ7Yq7e-86" value="8" style="text;html=1;align=center;verticalAlign=middle;resizable=0;points=[];autosize=1;strokeColor=none;fillColor=none;" vertex="1" parent="1">
          <mxGeometry x="-304.81999999999994" y="15724" width="30" height="30" as="geometry" />
        </mxCell>
        <mxCell id="ec-a_IO9oX3N2aJ7Yq7e-87" value="&lt;b style=&quot;font-size: 17px;&quot;&gt;lane_id=8&lt;/b&gt;" style="rounded=0;whiteSpace=wrap;html=1;fillColor=#60a917;strokeColor=#2D7600;fontColor=#ffffff;" vertex="1" parent="1">
          <mxGeometry x="-651.8399999999999" y="16193.99" width="110" height="40" as="geometry" />
        </mxCell>
        <mxCell id="ec-a_IO9oX3N2aJ7Yq7e-88" value="&lt;b style=&quot;font-size: 17px;&quot;&gt;lane_id=9&lt;/b&gt;" style="rounded=0;whiteSpace=wrap;html=1;fillColor=#1ba1e2;strokeColor=#006EAF;fontColor=#ffffff;" vertex="1" parent="1">
          <mxGeometry x="-541.84" y="16193.99" width="110" height="40" as="geometry" />
        </mxCell>
        <mxCell id="ec-a_IO9oX3N2aJ7Yq7e-89" value="&lt;b style=&quot;font-size: 17px;&quot;&gt;lane_id=10&lt;/b&gt;" style="rounded=0;whiteSpace=wrap;html=1;fillColor=#0050ef;strokeColor=#001DBC;fontColor=#ffffff;" vertex="1" parent="1">
          <mxGeometry x="-431.84000000000003" y="16193.99" width="110" height="40" as="geometry" />
        </mxCell>
        <mxCell id="ec-a_IO9oX3N2aJ7Yq7e-90" value="&lt;b style=&quot;font-size: 17px;&quot;&gt;lane_id=11&lt;/b&gt;" style="rounded=0;whiteSpace=wrap;html=1;fillColor=#d80073;strokeColor=#A50040;fontColor=#ffffff;" vertex="1" parent="1">
          <mxGeometry x="-321.84000000000003" y="16193.99" width="110" height="40" as="geometry" />
        </mxCell>
        <mxCell id="ec-a_IO9oX3N2aJ7Yq7e-91" value="&lt;b style=&quot;font-size: 17px;&quot;&gt;lane_id=12&lt;/b&gt;" style="rounded=0;whiteSpace=wrap;html=1;fillColor=#6d8764;strokeColor=#3A5431;fontColor=#ffffff;" vertex="1" parent="1">
          <mxGeometry x="-211.83999999999992" y="16193.99" width="110" height="40" as="geometry" />
        </mxCell>
        <mxCell id="ec-a_IO9oX3N2aJ7Yq7e-92" value="&lt;b style=&quot;color: rgb(255, 255, 255); font-size: 17px;&quot;&gt;lane_id=13&lt;/b&gt;" style="rounded=0;whiteSpace=wrap;html=1;fillColor=#fa6800;strokeColor=#C73500;fontColor=#000000;" vertex="1" parent="1">
          <mxGeometry x="-101.83999999999992" y="16193.99" width="110" height="40" as="geometry" />
        </mxCell>
        <mxCell id="ec-a_IO9oX3N2aJ7Yq7e-93" value="&lt;b style=&quot;font-size: 17px;&quot;&gt;lane_id=14&lt;/b&gt;" style="rounded=0;whiteSpace=wrap;html=1;fillColor=#647687;strokeColor=#314354;fontColor=#ffffff;" vertex="1" parent="1">
          <mxGeometry x="8.160000000000252" y="16193.99" width="110" height="40" as="geometry" />
        </mxCell>
        <mxCell id="ec-a_IO9oX3N2aJ7Yq7e-94" value="&lt;b style=&quot;color: rgb(255, 255, 255); font-size: 17px;&quot;&gt;lane_id=15&lt;/b&gt;" style="rounded=0;whiteSpace=wrap;html=1;fillColor=#e3c800;strokeColor=#B09500;fontColor=#000000;" vertex="1" parent="1">
          <mxGeometry x="118.1600000000002" y="16193.99" width="110" height="40" as="geometry" />
        </mxCell>
        <mxCell id="ec-a_IO9oX3N2aJ7Yq7e-95" value="&lt;b style=&quot;font-size: 17px;&quot;&gt;lane_id=24&lt;/b&gt;" style="rounded=0;whiteSpace=wrap;html=1;fillColor=#60a917;strokeColor=#2D7600;fontColor=#ffffff;" vertex="1" parent="1">
          <mxGeometry x="-541.84" y="16233.99" width="110" height="40" as="geometry" />
        </mxCell>
        <mxCell id="ec-a_IO9oX3N2aJ7Yq7e-96" value="&lt;b style=&quot;font-size: 17px;&quot;&gt;lane_id=25&lt;/b&gt;" style="rounded=0;whiteSpace=wrap;html=1;fillColor=#1ba1e2;strokeColor=#006EAF;fontColor=#ffffff;" vertex="1" parent="1">
          <mxGeometry x="-431.84000000000003" y="16233.99" width="110" height="40" as="geometry" />
        </mxCell>
        <mxCell id="ec-a_IO9oX3N2aJ7Yq7e-97" value="&lt;b style=&quot;font-size: 17px;&quot;&gt;lane_id=26&lt;/b&gt;" style="rounded=0;whiteSpace=wrap;html=1;fillColor=#0050ef;strokeColor=#001DBC;fontColor=#ffffff;" vertex="1" parent="1">
          <mxGeometry x="-321.84000000000003" y="16233.99" width="110" height="40" as="geometry" />
        </mxCell>
        <mxCell id="ec-a_IO9oX3N2aJ7Yq7e-98" value="&lt;b style=&quot;font-size: 17px;&quot;&gt;lane_id=27&lt;/b&gt;" style="rounded=0;whiteSpace=wrap;html=1;fillColor=#d80073;strokeColor=#A50040;fontColor=#ffffff;" vertex="1" parent="1">
          <mxGeometry x="-211.83999999999992" y="16233.99" width="110" height="40" as="geometry" />
        </mxCell>
        <mxCell id="ec-a_IO9oX3N2aJ7Yq7e-99" value="&lt;b style=&quot;font-size: 17px;&quot;&gt;lane_id=28&lt;/b&gt;" style="rounded=0;whiteSpace=wrap;html=1;fillColor=#6d8764;strokeColor=#3A5431;fontColor=#ffffff;" vertex="1" parent="1">
          <mxGeometry x="-101.83999999999992" y="16233.99" width="110" height="40" as="geometry" />
        </mxCell>
        <mxCell id="ec-a_IO9oX3N2aJ7Yq7e-100" value="&lt;b style=&quot;color: rgb(255, 255, 255); font-size: 17px;&quot;&gt;lane_id=29&lt;/b&gt;" style="rounded=0;whiteSpace=wrap;html=1;fillColor=#fa6800;strokeColor=#C73500;fontColor=#000000;" vertex="1" parent="1">
          <mxGeometry x="8.160000000000252" y="16233.99" width="110" height="40" as="geometry" />
        </mxCell>
        <mxCell id="ec-a_IO9oX3N2aJ7Yq7e-101" value="&lt;b style=&quot;font-size: 17px;&quot;&gt;lane_id=30&lt;/b&gt;" style="rounded=0;whiteSpace=wrap;html=1;fillColor=#647687;strokeColor=#314354;fontColor=#ffffff;" vertex="1" parent="1">
          <mxGeometry x="118.1600000000002" y="16233.99" width="110" height="40" as="geometry" />
        </mxCell>
        <mxCell id="ec-a_IO9oX3N2aJ7Yq7e-102" value="&lt;b style=&quot;color: rgb(255, 255, 255); font-size: 17px;&quot;&gt;lane_id=23&lt;/b&gt;" style="rounded=0;whiteSpace=wrap;html=1;fillColor=#e3c800;strokeColor=#B09500;fontColor=#000000;" vertex="1" parent="1">
          <mxGeometry x="-651.8399999999999" y="16233.99" width="110" height="40" as="geometry" />
        </mxCell>
        <mxCell id="ec-a_IO9oX3N2aJ7Yq7e-103" value="&lt;b style=&quot;font-size: 17px;&quot;&gt;lane_id=8&lt;/b&gt;" style="rounded=0;whiteSpace=wrap;html=1;fillColor=#60a917;strokeColor=#2D7600;fontColor=#ffffff;" vertex="1" parent="1">
          <mxGeometry x="-431.84000000000003" y="16273.99" width="110" height="40" as="geometry" />
        </mxCell>
        <mxCell id="ec-a_IO9oX3N2aJ7Yq7e-104" value="&lt;b style=&quot;font-size: 17px;&quot;&gt;lane_id=9&lt;/b&gt;" style="rounded=0;whiteSpace=wrap;html=1;fillColor=#1ba1e2;strokeColor=#006EAF;fontColor=#ffffff;" vertex="1" parent="1">
          <mxGeometry x="-321.84000000000003" y="16273.99" width="110" height="40" as="geometry" />
        </mxCell>
        <mxCell id="ec-a_IO9oX3N2aJ7Yq7e-105" value="&lt;b style=&quot;font-size: 17px;&quot;&gt;lane_id=10&lt;/b&gt;" style="rounded=0;whiteSpace=wrap;html=1;fillColor=#0050ef;strokeColor=#001DBC;fontColor=#ffffff;" vertex="1" parent="1">
          <mxGeometry x="-211.83999999999992" y="16273.99" width="110" height="40" as="geometry" />
        </mxCell>
        <mxCell id="ec-a_IO9oX3N2aJ7Yq7e-106" value="&lt;b style=&quot;font-size: 17px;&quot;&gt;lane_id=11&lt;/b&gt;" style="rounded=0;whiteSpace=wrap;html=1;fillColor=#d80073;strokeColor=#A50040;fontColor=#ffffff;" vertex="1" parent="1">
          <mxGeometry x="-101.83999999999992" y="16273.99" width="110" height="40" as="geometry" />
        </mxCell>
        <mxCell id="ec-a_IO9oX3N2aJ7Yq7e-107" value="&lt;b style=&quot;font-size: 17px;&quot;&gt;lane_id=12&lt;/b&gt;" style="rounded=0;whiteSpace=wrap;html=1;fillColor=#6d8764;strokeColor=#3A5431;fontColor=#ffffff;" vertex="1" parent="1">
          <mxGeometry x="8.160000000000252" y="16273.99" width="110" height="40" as="geometry" />
        </mxCell>
        <mxCell id="ec-a_IO9oX3N2aJ7Yq7e-108" value="&lt;b style=&quot;color: rgb(255, 255, 255); font-size: 17px;&quot;&gt;lane_id=13&lt;/b&gt;" style="rounded=0;whiteSpace=wrap;html=1;fillColor=#fa6800;strokeColor=#C73500;fontColor=#000000;" vertex="1" parent="1">
          <mxGeometry x="118.1600000000002" y="16273.99" width="110" height="40" as="geometry" />
        </mxCell>
        <mxCell id="ec-a_IO9oX3N2aJ7Yq7e-109" value="&lt;b style=&quot;font-size: 17px;&quot;&gt;lane_id=6&lt;/b&gt;" style="rounded=0;whiteSpace=wrap;html=1;fillColor=#647687;strokeColor=#314354;fontColor=#ffffff;" vertex="1" parent="1">
          <mxGeometry x="-651.8399999999999" y="16273.99" width="110" height="40" as="geometry" />
        </mxCell>
        <mxCell id="ec-a_IO9oX3N2aJ7Yq7e-110" value="&lt;b style=&quot;color: rgb(255, 255, 255); font-size: 17px;&quot;&gt;lane_id=7&lt;/b&gt;" style="rounded=0;whiteSpace=wrap;html=1;fillColor=#e3c800;strokeColor=#B09500;fontColor=#000000;" vertex="1" parent="1">
          <mxGeometry x="-541.84" y="16273.99" width="110" height="40" as="geometry" />
        </mxCell>
        <mxCell id="ec-a_IO9oX3N2aJ7Yq7e-111" value="&lt;b style=&quot;font-size: 17px;&quot;&gt;lane_id=24&lt;/b&gt;" style="rounded=0;whiteSpace=wrap;html=1;fillColor=#60a917;strokeColor=#2D7600;fontColor=#ffffff;" vertex="1" parent="1">
          <mxGeometry x="-321.84000000000003" y="16313.99" width="110" height="40" as="geometry" />
        </mxCell>
        <mxCell id="ec-a_IO9oX3N2aJ7Yq7e-112" value="&lt;b style=&quot;font-size: 17px;&quot;&gt;lane_id=25&lt;/b&gt;" style="rounded=0;whiteSpace=wrap;html=1;fillColor=#1ba1e2;strokeColor=#006EAF;fontColor=#ffffff;" vertex="1" parent="1">
          <mxGeometry x="-211.83999999999992" y="16313.99" width="110" height="40" as="geometry" />
        </mxCell>
        <mxCell id="ec-a_IO9oX3N2aJ7Yq7e-113" value="&lt;b style=&quot;font-size: 17px;&quot;&gt;lane_id=26&lt;/b&gt;" style="rounded=0;whiteSpace=wrap;html=1;fillColor=#0050ef;strokeColor=#001DBC;fontColor=#ffffff;" vertex="1" parent="1">
          <mxGeometry x="-101.83999999999992" y="16313.99" width="110" height="40" as="geometry" />
        </mxCell>
        <mxCell id="ec-a_IO9oX3N2aJ7Yq7e-114" value="&lt;b style=&quot;font-size: 17px;&quot;&gt;lane_id=27&lt;/b&gt;" style="rounded=0;whiteSpace=wrap;html=1;fillColor=#d80073;strokeColor=#A50040;fontColor=#ffffff;" vertex="1" parent="1">
          <mxGeometry x="8.160000000000252" y="16313.99" width="110" height="40" as="geometry" />
        </mxCell>
        <mxCell id="ec-a_IO9oX3N2aJ7Yq7e-115" value="&lt;b style=&quot;font-size: 17px;&quot;&gt;lane_id=28&lt;/b&gt;" style="rounded=0;whiteSpace=wrap;html=1;fillColor=#6d8764;strokeColor=#3A5431;fontColor=#ffffff;" vertex="1" parent="1">
          <mxGeometry x="118.1600000000002" y="16313.99" width="110" height="40" as="geometry" />
        </mxCell>
        <mxCell id="ec-a_IO9oX3N2aJ7Yq7e-116" value="&lt;b style=&quot;color: rgb(255, 255, 255); font-size: 17px;&quot;&gt;lane_id=21&lt;/b&gt;" style="rounded=0;whiteSpace=wrap;html=1;fillColor=#fa6800;strokeColor=#C73500;fontColor=#000000;" vertex="1" parent="1">
          <mxGeometry x="-651.8399999999999" y="16313.99" width="110" height="40" as="geometry" />
        </mxCell>
        <mxCell id="ec-a_IO9oX3N2aJ7Yq7e-117" value="&lt;b style=&quot;font-size: 17px;&quot;&gt;lane_id=22&lt;/b&gt;" style="rounded=0;whiteSpace=wrap;html=1;fillColor=#647687;strokeColor=#314354;fontColor=#ffffff;" vertex="1" parent="1">
          <mxGeometry x="-541.84" y="16313.99" width="110" height="40" as="geometry" />
        </mxCell>
        <mxCell id="ec-a_IO9oX3N2aJ7Yq7e-118" value="&lt;b style=&quot;color: rgb(255, 255, 255); font-size: 17px;&quot;&gt;lane_id=23&lt;/b&gt;" style="rounded=0;whiteSpace=wrap;html=1;fillColor=#e3c800;strokeColor=#B09500;fontColor=#000000;" vertex="1" parent="1">
          <mxGeometry x="-431.84000000000003" y="16313.99" width="110" height="40" as="geometry" />
        </mxCell>
        <mxCell id="ec-a_IO9oX3N2aJ7Yq7e-119" value="&lt;b style=&quot;font-size: 17px;&quot;&gt;lane_id=8&lt;/b&gt;" style="rounded=0;whiteSpace=wrap;html=1;fillColor=#60a917;strokeColor=#2D7600;fontColor=#ffffff;" vertex="1" parent="1">
          <mxGeometry x="-211.83999999999992" y="16353.99" width="110" height="40" as="geometry" />
        </mxCell>
        <mxCell id="ec-a_IO9oX3N2aJ7Yq7e-120" value="&lt;b style=&quot;font-size: 17px;&quot;&gt;lane_id=9&lt;/b&gt;" style="rounded=0;whiteSpace=wrap;html=1;fillColor=#1ba1e2;strokeColor=#006EAF;fontColor=#ffffff;" vertex="1" parent="1">
          <mxGeometry x="-101.83999999999992" y="16353.99" width="110" height="40" as="geometry" />
        </mxCell>
        <mxCell id="ec-a_IO9oX3N2aJ7Yq7e-121" value="&lt;b style=&quot;font-size: 17px;&quot;&gt;lane_id=10&lt;/b&gt;" style="rounded=0;whiteSpace=wrap;html=1;fillColor=#0050ef;strokeColor=#001DBC;fontColor=#ffffff;" vertex="1" parent="1">
          <mxGeometry x="8.160000000000252" y="16353.99" width="110" height="40" as="geometry" />
        </mxCell>
        <mxCell id="ec-a_IO9oX3N2aJ7Yq7e-122" value="&lt;b style=&quot;font-size: 17px;&quot;&gt;lane_id=11&lt;/b&gt;" style="rounded=0;whiteSpace=wrap;html=1;fillColor=#d80073;strokeColor=#A50040;fontColor=#ffffff;" vertex="1" parent="1">
          <mxGeometry x="118.1600000000002" y="16353.99" width="110" height="40" as="geometry" />
        </mxCell>
        <mxCell id="ec-a_IO9oX3N2aJ7Yq7e-123" value="&lt;b style=&quot;font-size: 17px;&quot;&gt;lane_id=4&lt;/b&gt;" style="rounded=0;whiteSpace=wrap;html=1;fillColor=#6d8764;strokeColor=#3A5431;fontColor=#ffffff;" vertex="1" parent="1">
          <mxGeometry x="-651.8399999999999" y="16353.99" width="110" height="40" as="geometry" />
        </mxCell>
        <mxCell id="ec-a_IO9oX3N2aJ7Yq7e-124" value="&lt;b style=&quot;color: rgb(255, 255, 255); font-size: 17px;&quot;&gt;lane_id=5&lt;/b&gt;" style="rounded=0;whiteSpace=wrap;html=1;fillColor=#fa6800;strokeColor=#C73500;fontColor=#000000;" vertex="1" parent="1">
          <mxGeometry x="-541.84" y="16353.99" width="110" height="40" as="geometry" />
        </mxCell>
        <mxCell id="ec-a_IO9oX3N2aJ7Yq7e-125" value="&lt;b style=&quot;font-size: 17px;&quot;&gt;lane_id=6&lt;/b&gt;" style="rounded=0;whiteSpace=wrap;html=1;fillColor=#647687;strokeColor=#314354;fontColor=#ffffff;" vertex="1" parent="1">
          <mxGeometry x="-431.84000000000003" y="16353.99" width="110" height="40" as="geometry" />
        </mxCell>
        <mxCell id="ec-a_IO9oX3N2aJ7Yq7e-126" value="&lt;b style=&quot;color: rgb(255, 255, 255); font-size: 17px;&quot;&gt;lane_id=7&lt;/b&gt;" style="rounded=0;whiteSpace=wrap;html=1;fillColor=#e3c800;strokeColor=#B09500;fontColor=#000000;" vertex="1" parent="1">
          <mxGeometry x="-321.84000000000003" y="16353.99" width="110" height="40" as="geometry" />
        </mxCell>
        <mxCell id="ec-a_IO9oX3N2aJ7Yq7e-127" value="&lt;b style=&quot;font-size: 17px;&quot;&gt;lane_id=24&lt;/b&gt;" style="rounded=0;whiteSpace=wrap;html=1;fillColor=#60a917;strokeColor=#2D7600;fontColor=#ffffff;" vertex="1" parent="1">
          <mxGeometry x="-101.83999999999992" y="16393.989999999998" width="110" height="40" as="geometry" />
        </mxCell>
        <mxCell id="ec-a_IO9oX3N2aJ7Yq7e-128" value="&lt;b style=&quot;font-size: 17px;&quot;&gt;lane_id=25&lt;/b&gt;" style="rounded=0;whiteSpace=wrap;html=1;fillColor=#1ba1e2;strokeColor=#006EAF;fontColor=#ffffff;" vertex="1" parent="1">
          <mxGeometry x="8.160000000000252" y="16393.989999999998" width="110" height="40" as="geometry" />
        </mxCell>
        <mxCell id="ec-a_IO9oX3N2aJ7Yq7e-129" value="&lt;b style=&quot;font-size: 17px;&quot;&gt;lane_id=26&lt;/b&gt;" style="rounded=0;whiteSpace=wrap;html=1;fillColor=#0050ef;strokeColor=#001DBC;fontColor=#ffffff;" vertex="1" parent="1">
          <mxGeometry x="118.1600000000002" y="16393.989999999998" width="110" height="40" as="geometry" />
        </mxCell>
        <mxCell id="ec-a_IO9oX3N2aJ7Yq7e-130" value="&lt;b style=&quot;font-size: 17px;&quot;&gt;lane_id=19&lt;/b&gt;" style="rounded=0;whiteSpace=wrap;html=1;fillColor=#d80073;strokeColor=#A50040;fontColor=#ffffff;" vertex="1" parent="1">
          <mxGeometry x="-651.8399999999999" y="16393.989999999998" width="110" height="40" as="geometry" />
        </mxCell>
        <mxCell id="ec-a_IO9oX3N2aJ7Yq7e-131" value="&lt;b style=&quot;font-size: 17px;&quot;&gt;lane_id=20&lt;/b&gt;" style="rounded=0;whiteSpace=wrap;html=1;fillColor=#6d8764;strokeColor=#3A5431;fontColor=#ffffff;" vertex="1" parent="1">
          <mxGeometry x="-541.84" y="16393.989999999998" width="110" height="40" as="geometry" />
        </mxCell>
        <mxCell id="ec-a_IO9oX3N2aJ7Yq7e-132" value="&lt;b style=&quot;color: rgb(255, 255, 255); font-size: 17px;&quot;&gt;lane_id=21&lt;/b&gt;" style="rounded=0;whiteSpace=wrap;html=1;fillColor=#fa6800;strokeColor=#C73500;fontColor=#000000;" vertex="1" parent="1">
          <mxGeometry x="-431.84000000000003" y="16393.989999999998" width="110" height="40" as="geometry" />
        </mxCell>
        <mxCell id="ec-a_IO9oX3N2aJ7Yq7e-133" value="&lt;b style=&quot;font-size: 17px;&quot;&gt;lane_id=22&lt;/b&gt;" style="rounded=0;whiteSpace=wrap;html=1;fillColor=#647687;strokeColor=#314354;fontColor=#ffffff;" vertex="1" parent="1">
          <mxGeometry x="-321.84000000000003" y="16393.989999999998" width="110" height="40" as="geometry" />
        </mxCell>
        <mxCell id="ec-a_IO9oX3N2aJ7Yq7e-134" value="&lt;b style=&quot;color: rgb(255, 255, 255); font-size: 17px;&quot;&gt;lane_id=23&lt;/b&gt;" style="rounded=0;whiteSpace=wrap;html=1;fillColor=#e3c800;strokeColor=#B09500;fontColor=#000000;" vertex="1" parent="1">
          <mxGeometry x="-211.83999999999992" y="16393.989999999998" width="110" height="40" as="geometry" />
        </mxCell>
        <mxCell id="ec-a_IO9oX3N2aJ7Yq7e-135" value="&lt;b style=&quot;font-size: 17px;&quot;&gt;lane_id=8&lt;/b&gt;" style="rounded=0;whiteSpace=wrap;html=1;fillColor=#60a917;strokeColor=#2D7600;fontColor=#ffffff;" vertex="1" parent="1">
          <mxGeometry x="8.160000000000252" y="16433.989999999998" width="110" height="40" as="geometry" />
        </mxCell>
        <mxCell id="ec-a_IO9oX3N2aJ7Yq7e-136" value="&lt;b style=&quot;font-size: 17px;&quot;&gt;lane_id=9&lt;/b&gt;" style="rounded=0;whiteSpace=wrap;html=1;fillColor=#1ba1e2;strokeColor=#006EAF;fontColor=#ffffff;" vertex="1" parent="1">
          <mxGeometry x="118.1600000000002" y="16433.989999999998" width="110" height="40" as="geometry" />
        </mxCell>
        <mxCell id="ec-a_IO9oX3N2aJ7Yq7e-137" value="&lt;b style=&quot;font-size: 17px;&quot;&gt;lane_id=2&lt;/b&gt;" style="rounded=0;whiteSpace=wrap;html=1;fillColor=#0050ef;strokeColor=#001DBC;fontColor=#ffffff;" vertex="1" parent="1">
          <mxGeometry x="-651.8399999999999" y="16433.989999999998" width="110" height="40" as="geometry" />
        </mxCell>
        <mxCell id="ec-a_IO9oX3N2aJ7Yq7e-138" value="&lt;b style=&quot;font-size: 17px;&quot;&gt;lane_id=3&lt;/b&gt;" style="rounded=0;whiteSpace=wrap;html=1;fillColor=#d80073;strokeColor=#A50040;fontColor=#ffffff;" vertex="1" parent="1">
          <mxGeometry x="-541.84" y="16433.989999999998" width="110" height="40" as="geometry" />
        </mxCell>
        <mxCell id="ec-a_IO9oX3N2aJ7Yq7e-139" value="&lt;b style=&quot;font-size: 17px;&quot;&gt;lane_id=4&lt;/b&gt;" style="rounded=0;whiteSpace=wrap;html=1;fillColor=#6d8764;strokeColor=#3A5431;fontColor=#ffffff;" vertex="1" parent="1">
          <mxGeometry x="-431.84000000000003" y="16433.989999999998" width="110" height="40" as="geometry" />
        </mxCell>
        <mxCell id="ec-a_IO9oX3N2aJ7Yq7e-140" value="&lt;b style=&quot;color: rgb(255, 255, 255); font-size: 17px;&quot;&gt;lane_id=5&lt;/b&gt;" style="rounded=0;whiteSpace=wrap;html=1;fillColor=#fa6800;strokeColor=#C73500;fontColor=#000000;" vertex="1" parent="1">
          <mxGeometry x="-321.84000000000003" y="16433.989999999998" width="110" height="40" as="geometry" />
        </mxCell>
        <mxCell id="ec-a_IO9oX3N2aJ7Yq7e-141" value="&lt;b style=&quot;font-size: 17px;&quot;&gt;lane_id=6&lt;/b&gt;" style="rounded=0;whiteSpace=wrap;html=1;fillColor=#647687;strokeColor=#314354;fontColor=#ffffff;" vertex="1" parent="1">
          <mxGeometry x="-211.83999999999992" y="16433.989999999998" width="110" height="40" as="geometry" />
        </mxCell>
        <mxCell id="ec-a_IO9oX3N2aJ7Yq7e-142" value="&lt;b style=&quot;color: rgb(255, 255, 255); font-size: 17px;&quot;&gt;lane_id=7&lt;/b&gt;" style="rounded=0;whiteSpace=wrap;html=1;fillColor=#e3c800;strokeColor=#B09500;fontColor=#000000;" vertex="1" parent="1">
          <mxGeometry x="-101.83999999999992" y="16433.989999999998" width="110" height="40" as="geometry" />
        </mxCell>
        <mxCell id="ec-a_IO9oX3N2aJ7Yq7e-143" value="&lt;b style=&quot;font-size: 17px;&quot;&gt;lane_id=24&lt;/b&gt;" style="rounded=0;whiteSpace=wrap;html=1;fillColor=#60a917;strokeColor=#2D7600;fontColor=#ffffff;" vertex="1" parent="1">
          <mxGeometry x="118.1600000000002" y="16473.989999999998" width="110" height="40" as="geometry" />
        </mxCell>
        <mxCell id="ec-a_IO9oX3N2aJ7Yq7e-144" value="&lt;b style=&quot;font-size: 17px;&quot;&gt;lane_id=17&lt;/b&gt;" style="rounded=0;whiteSpace=wrap;html=1;fillColor=#1ba1e2;strokeColor=#006EAF;fontColor=#ffffff;" vertex="1" parent="1">
          <mxGeometry x="-651.8399999999999" y="16473.989999999998" width="110" height="40" as="geometry" />
        </mxCell>
        <mxCell id="ec-a_IO9oX3N2aJ7Yq7e-145" value="&lt;b style=&quot;font-size: 17px;&quot;&gt;lane_id=18&lt;/b&gt;" style="rounded=0;whiteSpace=wrap;html=1;fillColor=#0050ef;strokeColor=#001DBC;fontColor=#ffffff;" vertex="1" parent="1">
          <mxGeometry x="-541.84" y="16473.989999999998" width="110" height="40" as="geometry" />
        </mxCell>
        <mxCell id="ec-a_IO9oX3N2aJ7Yq7e-146" value="&lt;b style=&quot;font-size: 17px;&quot;&gt;lane_id=19&lt;/b&gt;" style="rounded=0;whiteSpace=wrap;html=1;fillColor=#d80073;strokeColor=#A50040;fontColor=#ffffff;" vertex="1" parent="1">
          <mxGeometry x="-431.84000000000003" y="16473.989999999998" width="110" height="40" as="geometry" />
        </mxCell>
        <mxCell id="ec-a_IO9oX3N2aJ7Yq7e-147" value="&lt;b style=&quot;font-size: 17px;&quot;&gt;lane_id=20&lt;/b&gt;" style="rounded=0;whiteSpace=wrap;html=1;fillColor=#6d8764;strokeColor=#3A5431;fontColor=#ffffff;" vertex="1" parent="1">
          <mxGeometry x="-321.84000000000003" y="16473.989999999998" width="110" height="40" as="geometry" />
        </mxCell>
        <mxCell id="ec-a_IO9oX3N2aJ7Yq7e-148" value="&lt;b style=&quot;color: rgb(255, 255, 255); font-size: 17px;&quot;&gt;lane_id=21&lt;/b&gt;" style="rounded=0;whiteSpace=wrap;html=1;fillColor=#fa6800;strokeColor=#C73500;fontColor=#000000;" vertex="1" parent="1">
          <mxGeometry x="-211.83999999999992" y="16473.989999999998" width="110" height="40" as="geometry" />
        </mxCell>
        <mxCell id="ec-a_IO9oX3N2aJ7Yq7e-149" value="&lt;b style=&quot;font-size: 17px;&quot;&gt;lane_id=22&lt;/b&gt;" style="rounded=0;whiteSpace=wrap;html=1;fillColor=#647687;strokeColor=#314354;fontColor=#ffffff;" vertex="1" parent="1">
          <mxGeometry x="-101.83999999999992" y="16473.989999999998" width="110" height="40" as="geometry" />
        </mxCell>
        <mxCell id="ec-a_IO9oX3N2aJ7Yq7e-150" value="&lt;b style=&quot;color: rgb(255, 255, 255); font-size: 17px;&quot;&gt;lane_id=23&lt;/b&gt;" style="rounded=0;whiteSpace=wrap;html=1;fillColor=#e3c800;strokeColor=#B09500;fontColor=#000000;" vertex="1" parent="1">
          <mxGeometry x="8.160000000000252" y="16473.989999999998" width="110" height="40" as="geometry" />
        </mxCell>
        <mxCell id="ec-a_IO9oX3N2aJ7Yq7e-155" style="edgeStyle=orthogonalEdgeStyle;rounded=0;orthogonalLoop=1;jettySize=auto;html=1;entryX=0.5;entryY=1;entryDx=0;entryDy=0;" edge="1" parent="1" target="ec-a_IO9oX3N2aJ7Yq7e-156">
          <mxGeometry relative="1" as="geometry">
            <mxPoint x="-594.84" y="16193.62" as="sourcePoint" />
          </mxGeometry>
        </mxCell>
        <mxCell id="ec-a_IO9oX3N2aJ7Yq7e-156" value="&lt;font style=&quot;font-size: 16px;&quot;&gt;&lt;b&gt;bank0~3&lt;/b&gt;&lt;/font&gt;" style="rounded=1;whiteSpace=wrap;html=1;" vertex="1" parent="1">
          <mxGeometry x="-641.84" y="16141.83" width="95.03" height="30" as="geometry" />
        </mxCell>
        <mxCell id="ec-a_IO9oX3N2aJ7Yq7e-157" value="&lt;font style=&quot;font-size: 16px;&quot;&gt;&lt;b&gt;bank4~7&lt;/b&gt;&lt;/font&gt;" style="rounded=1;whiteSpace=wrap;html=1;" vertex="1" parent="1">
          <mxGeometry x="-531.84" y="16141.83" width="95.03" height="30" as="geometry" />
        </mxCell>
        <mxCell id="ec-a_IO9oX3N2aJ7Yq7e-158" value="&lt;font style=&quot;font-size: 16px;&quot;&gt;&lt;b&gt;bank8~11&lt;/b&gt;&lt;/font&gt;" style="rounded=1;whiteSpace=wrap;html=1;" vertex="1" parent="1">
          <mxGeometry x="-421.84000000000003" y="16141.83" width="95.03" height="30" as="geometry" />
        </mxCell>
        <mxCell id="ec-a_IO9oX3N2aJ7Yq7e-159" value="&lt;font style=&quot;font-size: 16px;&quot;&gt;&lt;b&gt;bank12~15&lt;/b&gt;&lt;/font&gt;" style="rounded=1;whiteSpace=wrap;html=1;" vertex="1" parent="1">
          <mxGeometry x="-311.8299999999998" y="16141.83" width="95.03" height="30" as="geometry" />
        </mxCell>
        <mxCell id="ec-a_IO9oX3N2aJ7Yq7e-160" value="&lt;font style=&quot;font-size: 16px;&quot;&gt;&lt;b&gt;bank16~19&lt;/b&gt;&lt;/font&gt;" style="rounded=1;whiteSpace=wrap;html=1;" vertex="1" parent="1">
          <mxGeometry x="-201.8299999999997" y="16141.83" width="95.03" height="30" as="geometry" />
        </mxCell>
        <mxCell id="ec-a_IO9oX3N2aJ7Yq7e-161" value="&lt;font style=&quot;font-size: 16px;&quot;&gt;&lt;b&gt;bank20~23&lt;/b&gt;&lt;/font&gt;" style="rounded=1;whiteSpace=wrap;html=1;" vertex="1" parent="1">
          <mxGeometry x="-91.82999999999981" y="16141.83" width="95.03" height="30" as="geometry" />
        </mxCell>
        <mxCell id="ec-a_IO9oX3N2aJ7Yq7e-162" value="&lt;font style=&quot;font-size: 16px;&quot;&gt;&lt;b&gt;bank24~27&lt;/b&gt;&lt;/font&gt;" style="rounded=1;whiteSpace=wrap;html=1;" vertex="1" parent="1">
          <mxGeometry x="18.170000000000186" y="16141.83" width="95.03" height="30" as="geometry" />
        </mxCell>
        <mxCell id="ec-a_IO9oX3N2aJ7Yq7e-163" value="&lt;font style=&quot;font-size: 16px;&quot;&gt;&lt;b&gt;bank28~31&lt;/b&gt;&lt;/font&gt;" style="rounded=1;whiteSpace=wrap;html=1;" vertex="1" parent="1">
          <mxGeometry x="128.1700000000002" y="16141.83" width="95.03" height="30" as="geometry" />
        </mxCell>
        <mxCell id="ec-a_IO9oX3N2aJ7Yq7e-164" style="edgeStyle=orthogonalEdgeStyle;rounded=0;orthogonalLoop=1;jettySize=auto;html=1;entryX=0.5;entryY=1;entryDx=0;entryDy=0;" edge="1" parent="1" target="ec-a_IO9oX3N2aJ7Yq7e-157">
          <mxGeometry relative="1" as="geometry">
            <mxPoint x="-484.84000000000003" y="16193.62" as="sourcePoint" />
          </mxGeometry>
        </mxCell>
        <mxCell id="ec-a_IO9oX3N2aJ7Yq7e-165" style="edgeStyle=orthogonalEdgeStyle;rounded=0;orthogonalLoop=1;jettySize=auto;html=1;entryX=0.5;entryY=1;entryDx=0;entryDy=0;" edge="1" parent="1" target="ec-a_IO9oX3N2aJ7Yq7e-158">
          <mxGeometry relative="1" as="geometry">
            <mxPoint x="-373.25" y="16193.99" as="sourcePoint" />
          </mxGeometry>
        </mxCell>
        <mxCell id="ec-a_IO9oX3N2aJ7Yq7e-166" style="edgeStyle=orthogonalEdgeStyle;rounded=0;orthogonalLoop=1;jettySize=auto;html=1;entryX=0.5;entryY=1;entryDx=0;entryDy=0;" edge="1" parent="1" target="ec-a_IO9oX3N2aJ7Yq7e-159">
          <mxGeometry relative="1" as="geometry">
            <mxPoint x="-263.25" y="16193.99" as="sourcePoint" />
          </mxGeometry>
        </mxCell>
        <mxCell id="ec-a_IO9oX3N2aJ7Yq7e-167" style="edgeStyle=orthogonalEdgeStyle;rounded=0;orthogonalLoop=1;jettySize=auto;html=1;entryX=0.5;entryY=1;entryDx=0;entryDy=0;" edge="1" parent="1" target="ec-a_IO9oX3N2aJ7Yq7e-160">
          <mxGeometry relative="1" as="geometry">
            <mxPoint x="-153.25" y="16193.99" as="sourcePoint" />
          </mxGeometry>
        </mxCell>
        <mxCell id="ec-a_IO9oX3N2aJ7Yq7e-168" style="edgeStyle=orthogonalEdgeStyle;rounded=0;orthogonalLoop=1;jettySize=auto;html=1;entryX=0.5;entryY=1;entryDx=0;entryDy=0;" edge="1" parent="1" target="ec-a_IO9oX3N2aJ7Yq7e-161">
          <mxGeometry relative="1" as="geometry">
            <mxPoint x="-43.25000000000006" y="16193.99" as="sourcePoint" />
          </mxGeometry>
        </mxCell>
        <mxCell id="ec-a_IO9oX3N2aJ7Yq7e-169" style="edgeStyle=orthogonalEdgeStyle;rounded=0;orthogonalLoop=1;jettySize=auto;html=1;entryX=0.5;entryY=1;entryDx=0;entryDy=0;" edge="1" parent="1" target="ec-a_IO9oX3N2aJ7Yq7e-162">
          <mxGeometry relative="1" as="geometry">
            <mxPoint x="66.74999999999989" y="16193.99" as="sourcePoint" />
          </mxGeometry>
        </mxCell>
        <mxCell id="ec-a_IO9oX3N2aJ7Yq7e-170" style="edgeStyle=orthogonalEdgeStyle;rounded=0;orthogonalLoop=1;jettySize=auto;html=1;" edge="1" parent="1" target="ec-a_IO9oX3N2aJ7Yq7e-163">
          <mxGeometry relative="1" as="geometry">
            <mxPoint x="175.15999999999997" y="16193.62" as="sourcePoint" />
          </mxGeometry>
        </mxCell>
        <mxCell id="ec-a_IO9oX3N2aJ7Yq7e-171" value="" style="line;strokeWidth=5;html=1;" vertex="1" parent="1">
          <mxGeometry x="-1611.8400000000001" y="16267.62" width="1870" height="10" as="geometry" />
        </mxCell>
        <mxCell id="ec-a_IO9oX3N2aJ7Yq7e-172" value="" style="line;strokeWidth=5;html=1;" vertex="1" parent="1">
          <mxGeometry x="-1614" y="16348.62" width="1870" height="10" as="geometry" />
        </mxCell>
        <mxCell id="ec-a_IO9oX3N2aJ7Yq7e-173" value="" style="line;strokeWidth=5;html=1;" vertex="1" parent="1">
          <mxGeometry x="-1617" y="16430.989999999998" width="1870" height="10" as="geometry" />
        </mxCell>
        <mxCell id="ec-a_IO9oX3N2aJ7Yq7e-174" value="" style="curved=1;endArrow=classic;html=1;rounded=0;exitX=0.161;exitY=0.867;exitDx=0;exitDy=0;exitPerimeter=0;entryX=0.5;entryY=0;entryDx=0;entryDy=0;" edge="1" parent="1" source="ec-a_IO9oX3N2aJ7Yq7e-86" target="BASvvJVavqTpIo9RgMH1-2060">
          <mxGeometry width="50" height="50" relative="1" as="geometry">
            <mxPoint x="20" y="15920" as="sourcePoint" />
            <mxPoint x="70" y="15870" as="targetPoint" />
            <Array as="points">
              <mxPoint x="-80" y="15760" />
              <mxPoint x="50" y="15870" />
            </Array>
          </mxGeometry>
        </mxCell>
        <mxCell id="ec-a_IO9oX3N2aJ7Yq7e-176" value="&lt;b&gt;&lt;font style=&quot;font-size: 17px;&quot;&gt;first 8 lines&lt;/font&gt;&lt;/b&gt;" style="rounded=1;whiteSpace=wrap;html=1;" vertex="1" parent="1">
          <mxGeometry x="383" y="16320" width="120" height="60" as="geometry" />
        </mxCell>
        <mxCell id="ec-a_IO9oX3N2aJ7Yq7e-178" value="" style="curved=1;endArrow=classic;html=1;rounded=0;exitX=0.239;exitY=0.987;exitDx=0;exitDy=0;exitPerimeter=0;" edge="1" parent="1" source="BASvvJVavqTpIo9RgMH1-2060" target="ec-a_IO9oX3N2aJ7Yq7e-175">
          <mxGeometry width="50" height="50" relative="1" as="geometry">
            <mxPoint x="-230" y="16070" as="sourcePoint" />
            <mxPoint x="-180" y="16020" as="targetPoint" />
            <Array as="points">
              <mxPoint x="-170" y="16030" />
              <mxPoint x="-230" y="16020" />
            </Array>
          </mxGeometry>
        </mxCell>
      </root>
    </mxGraphModel>
  </diagram>
</mxfile>
